<svg width="31" height="31" viewBox="0 0 31 31" fill="none" xmlns="http://www.w3.org/2000/svg">
<path d="M22.7021 18.2822C23.191 17.7934 23.9827 17.7942 24.4707 18.2822C24.9585 18.7702 24.9595 19.562 24.4707 20.0508L23.1445 21.376L24.4707 22.7021C24.9586 23.1901 24.9595 23.9819 24.4707 24.4707C23.9819 24.9596 23.1901 24.9586 22.7021 24.4707L21.376 23.1445L20.0498 24.4707C19.561 24.9591 18.7701 24.9584 18.2822 24.4707C17.7942 23.9827 17.7934 23.191 18.2822 22.7021L19.6084 21.376L18.2822 20.0508C17.7942 19.5628 17.7934 18.7711 18.2822 18.2822C18.771 17.7935 19.5618 17.7945 20.0498 18.2822L21.376 19.6084L22.7021 18.2822Z" fill="#FF3B3B"/>
<path fill-rule="evenodd" clip-rule="evenodd" d="M15.1885 15.1885C18.5999 11.7771 24.1521 11.7762 27.5645 15.1885C30.9766 18.6008 30.9758 24.1531 27.5645 27.5645C24.1531 30.9758 18.6008 30.9766 15.1885 27.5645C11.7762 24.1521 11.777 18.5999 15.1885 15.1885ZM25.7969 16.9561C23.3596 14.5188 19.3933 14.5188 16.9561 16.9561C14.5188 19.3933 14.5188 23.3596 16.9561 25.7969C19.3933 28.234 23.3597 28.2341 25.7969 25.7969C28.2341 23.3597 28.234 19.3933 25.7969 16.9561Z" fill="#FF3B3B"/>
<path fill-rule="evenodd" clip-rule="evenodd" d="M25 0C27.7575 0 30 2.2425 30 5V6.25C30 7.35875 29.5163 8.35547 28.75 9.04297V11.25C28.75 11.94 28.19 12.5 27.5 12.5C26.81 12.5 26.25 11.94 26.25 11.25V10H3.75V23.75C3.75 25.8175 5.4325 27.5 7.5 27.5H11.25C11.94 27.5 12.5 28.06 12.5 28.75C12.5 29.44 11.94 30 11.25 30H7.5C4.05375 30 1.25 27.1963 1.25 23.75V9.04297C0.48375 8.35547 0 7.3575 0 6.25V5C0 2.2425 2.2425 0 5 0H25ZM5 2.5C3.62125 2.5 2.5 3.62125 2.5 5V6.25C2.5 6.93875 3.06125 7.5 3.75 7.5H26.25C26.9387 7.5 27.5 6.93875 27.5 6.25V5C27.5 3.62125 26.3787 2.5 25 2.5H5Z" fill="#FF3B3B"/>
</svg>
