<svg width="21" height="23" viewBox="0 0 21 23" fill="none" xmlns="http://www.w3.org/2000/svg">
<path d="M10.0342 0C11.288 0.000326348 12.4767 0.541083 13.3418 1.47949C14.1112 2.3144 14.5711 3.405 14.6621 4.55176H17.4023C18.1466 4.55199 18.7925 5.07306 18.9404 5.79883L18.9629 5.94727L20.043 16.1475H20.042C20.1774 17.2947 19.6674 19.3476 17.4971 20.9766C16.3095 21.8677 14.8345 22.0829 13.5312 22.083H6.5332C5.22993 22.083 3.75503 21.8676 2.56738 20.9766C0.387679 19.3408 -0.118827 17.2773 0.0224609 16.1328H0.0234375L1.10059 5.94727L1.12402 5.79883C1.27201 5.07299 1.91773 4.55176 2.66211 4.55176H5.40527C5.49617 3.40479 5.9559 2.31445 6.72559 1.47949C7.59096 0.54093 8.78005 -1.19196e-07 10.0342 0ZM13.8135 8.24121C13.3718 8.24144 13.0137 8.59933 13.0137 9.04102C13.0137 9.95457 12.6781 10.8193 12.0986 11.4473C11.5212 12.0728 10.7524 12.411 9.96582 12.4111C9.17911 12.4111 8.40953 12.073 7.83203 11.4473C7.25256 10.8193 6.91701 9.95453 6.91699 9.04102C6.91699 8.59919 6.55902 8.24121 6.11719 8.24121C5.67543 8.2413 5.31738 8.59924 5.31738 9.04102C5.3174 10.3393 5.79247 11.5962 6.65625 12.5322C7.52206 13.4704 8.71141 14.0107 9.96582 14.0107C11.2201 14.0106 12.4087 13.4703 13.2744 12.5322C14.1383 11.5962 14.6133 10.3393 14.6133 9.04102C14.6133 8.59919 14.2553 8.24121 13.8135 8.24121ZM10.0342 1.59961C9.24834 1.59961 8.47958 1.93845 7.90234 2.56445C7.4129 3.09545 7.0978 3.7957 7.01172 4.55176H13.0547C12.9687 3.7959 12.6543 3.09541 12.165 2.56445C11.5881 1.93856 10.8197 1.59994 10.0342 1.59961Z" fill="white"/>
</svg>
