<svg width="107" height="89" viewBox="0 0 107 89" fill="none" xmlns="http://www.w3.org/2000/svg">
<g id="Group 52">
<path id="Ellipse 32" d="M98.1348 88.5H8.86521C4.97133 88.5 2.57185 84.2456 4.5863 80.9133L49.2211 7.07819C51.1663 3.86044 55.8337 3.86044 57.7789 7.07819L102.414 80.9133C104.428 84.2456 102.029 88.5 98.1348 88.5Z" fill="#FF3B3B"/>
<path id="!" d="M53.3279 32C54.8711 32 56.1132 33.2679 56.0813 34.8109L55.5532 60.4033C55.5282 61.6145 54.5392 62.5832 53.3279 62.5832C52.1165 62.5832 51.1275 61.6145 51.1026 60.4033L50.5744 34.8109C50.5426 33.2679 51.7846 32 53.3279 32ZM53.5574 75C52.5628 75 51.7213 74.633 51.0328 73.899C50.3443 73.165 50 72.2679 50 71.2077C50 70.1475 50.3443 69.2504 51.0328 68.5164C51.7213 67.7824 52.5628 67.4154 53.5574 67.4154C54.5137 67.4154 55.3169 67.7824 55.9672 68.5164C56.6557 69.2504 57 70.1475 57 71.2077C57 72.2679 56.6557 73.165 55.9672 73.899C55.3169 74.633 54.5137 75 53.5574 75Z" fill="#252525"/>
</g>
</svg>
