<svg width="20" height="15" viewBox="0 0 20 15" fill="none" xmlns="http://www.w3.org/2000/svg">
<path d="M13 7.5C13 8.29565 12.6839 9.05871 12.1213 9.62132C11.5587 10.1839 10.7956 10.5 10 10.5C9.20435 10.5 8.44129 10.1839 7.87868 9.62132C7.31607 9.05871 7 8.29565 7 7.5C7 6.70435 7.31607 5.94129 7.87868 5.37868C8.44129 4.81607 9.20435 4.5 10 4.5C10.7956 4.5 11.5587 4.81607 12.1213 5.37868C12.6839 5.94129 13 6.70435 13 7.5Z" stroke="white" stroke-opacity="0.5" stroke-linecap="round" stroke-linejoin="round"/>
<path d="M1.12117 7.83011C1.03983 7.61765 1.03983 7.38235 1.12117 7.16989C2.62268 3.24793 5.91605 0.5 10 0.5C14.084 0.5 17.3773 3.24793 18.8788 7.16989C18.9602 7.38235 18.9602 7.61765 18.8788 7.83011C17.3773 11.7521 14.084 14.5 10 14.5C5.91605 14.5 2.62268 11.7521 1.12117 7.83011Z" stroke="white" stroke-opacity="0.5" stroke-linecap="round" stroke-linejoin="round"/>
</svg>
