<svg width="20" height="16" viewBox="0 0 20 16" fill="none" xmlns="http://www.w3.org/2000/svg">
<path d="M13 8C13 8.79565 12.6839 9.55871 12.1213 10.1213C11.5587 10.6839 10.7956 11 10 11C9.20435 11 8.44129 10.6839 7.87868 10.1213C7.31607 9.55871 7 8.79565 7 8C7 7.20435 7.31607 6.44129 7.87868 5.87868C8.44129 5.31607 9.20435 5 10 5C10.7956 5 11.5587 5.31607 12.1213 5.87868C12.6839 6.44129 13 7.20435 13 8Z" stroke="white" stroke-linecap="round" stroke-linejoin="round"/>
<path d="M1.12117 8.33011C1.03983 8.11765 1.03983 7.88235 1.12117 7.66989C2.62268 3.74793 5.91605 1 10 1C14.084 1 17.3773 3.74793 18.8788 7.66989C18.9602 7.88235 18.9602 8.11765 18.8788 8.33011C17.3773 12.2521 14.084 15 10 15C5.91605 15 2.62268 12.2521 1.12117 8.33011Z" stroke="white" stroke-linecap="round" stroke-linejoin="round"/>
</svg>
