<svg width="24" height="27" viewBox="0 0 24 27" fill="none" xmlns="http://www.w3.org/2000/svg">
<g clip-path="url(#clip0_9637_84093)">
<path d="M22.669 17.5219C22.5164 17.5219 22.366 17.4826 22.2294 17.4069L20.2582 16.3118C20.0243 16.182 19.8463 15.9542 19.7635 15.6786C19.6807 15.403 19.6998 15.1021 19.8167 14.8422C19.9335 14.5822 20.1385 14.3845 20.3866 14.2925C20.6346 14.2005 20.9054 14.2217 21.1393 14.3516L23.1106 15.4467C23.3095 15.5569 23.4691 15.7385 23.5634 15.9622C23.6577 16.1859 23.6812 16.4384 23.6301 16.6788C23.5789 16.9191 23.4562 17.1332 23.2817 17.2863C23.1072 17.4394 22.8913 17.5224 22.669 17.5219ZM21.1384 7.55634L23.1096 6.46121C23.3435 6.33139 23.5215 6.10361 23.6043 5.828C23.6871 5.55238 23.668 5.25151 23.5511 4.99156C23.4343 4.73161 23.2293 4.53389 22.9812 4.44188C22.7332 4.34987 22.4624 4.37112 22.2284 4.50095L20.2572 5.59607C20.0233 5.7259 19.8453 5.95367 19.7625 6.22929C19.6797 6.5049 19.6988 6.80577 19.8157 7.06572C19.9325 7.32567 20.1375 7.52339 20.3856 7.6154C20.6336 7.70741 20.9044 7.68616 21.1384 7.55634ZM23.6546 10.9512C23.6546 10.6608 23.5508 10.3822 23.3659 10.1768C23.1811 9.97147 22.9304 9.85609 22.669 9.85609H20.6978C20.4364 9.85609 20.1857 9.97147 20.0009 10.1768C19.816 10.3822 19.7122 10.6608 19.7122 10.9512C19.7122 11.2417 19.816 11.5202 20.0009 11.7256C20.1857 11.931 20.4364 12.0463 20.6978 12.0463H22.669C22.9304 12.0463 23.1811 11.931 23.3659 11.7256C23.5508 11.5202 23.6546 11.2417 23.6546 10.9512ZM17.741 20.8073V1.09512C17.741 0.804677 17.6371 0.526129 17.4523 0.320754C17.2674 0.115379 17.0168 0 16.7554 0C16.494 0 16.2433 0.115379 16.0584 0.320754C15.8736 0.526129 15.7697 0.804677 15.7697 1.09512C15.7697 4.32463 13.2239 5.47561 10.8417 5.47561H3.94244C2.89684 5.47561 1.89406 5.93712 1.15471 6.75862C0.415363 7.58012 0 8.69431 0 9.85609L0 12.0463C0 13.2081 0.415363 14.3223 1.15471 15.1438C1.89406 15.9653 2.89684 16.4268 3.94244 16.4268H10.8417C13.2239 16.4268 15.7697 17.5778 15.7697 20.8073C15.7697 21.0977 15.8736 21.3763 16.0584 21.5817C16.2433 21.787 16.494 21.9024 16.7554 21.9024C17.0168 21.9024 17.2674 21.787 17.4523 21.5817C17.6371 21.3763 17.741 21.0977 17.741 20.8073ZM8.0682 18.6171H3.94244C3.48355 18.615 3.02644 18.5536 2.58032 18.4342L5.04435 24.5471C5.25129 25.0638 5.58858 25.5027 6.01541 25.8108C6.44223 26.1189 6.94027 26.2829 7.44923 26.2829C7.85417 26.2823 8.25254 26.1691 8.60803 25.9536C8.96352 25.7382 9.26482 25.4273 9.48449 25.0493C9.70416 24.6713 9.8352 24.2383 9.86568 23.7896C9.89615 23.341 9.82509 22.891 9.65897 22.4806L8.0682 18.6171Z" fill="white"/>
</g>
<defs>
<clipPath id="clip0_9637_84093">
<rect width="23.5607" height="26.388" fill="white"/>
</clipPath>
</defs>
</svg>
