<svg width="23" height="22" viewBox="0 0 23 22" fill="none" xmlns="http://www.w3.org/2000/svg">
<g id="wallet">
<g id="Vector 15">
<path d="M19.75 21H3.75C2.64543 21 1.75 20.1046 1.75 19V4.75H19.75C20.8546 4.75 21.75 5.64543 21.75 6.75V19C21.75 20.1046 20.8546 21 19.75 21Z" fill="white"/>
<path d="M18.7197 1H3.75C2.64543 1 1.75 1.89543 1.75 3V4.75M1.75 4.75V19C1.75 20.1046 2.64543 21 3.75 21H19.75C20.8546 21 21.75 20.1046 21.75 19V6.75C21.75 5.64543 20.8546 4.75 19.75 4.75H1.75Z" stroke="white" stroke-width="2" stroke-linecap="round" stroke-linejoin="round"/>
</g>
<ellipse id="Ellipse 12" cx="18.1151" cy="12.875" rx="1.81818" ry="1.875" fill="#252525"/>
</g>
</svg>
