<svg width="47" height="47" viewBox="0 0 47 47" fill="none" xmlns="http://www.w3.org/2000/svg">
<path fill-rule="evenodd" clip-rule="evenodd" d="M39.2437 6.05304C39.0971 5.92074 38.9489 5.79025 38.7991 5.66161C34.688 2.13248 29.343 0 23.5 0C10.5213 0 0 10.5213 0 23.5C0 29.343 2.13248 34.688 5.66161 38.7991C5.79025 38.9489 5.92074 39.0971 6.05304 39.2437C6.59148 39.84 7.16005 40.4085 7.75636 40.947C8.50316 41.6213 9.29347 42.2483 10.1226 42.8234C13.9193 45.4568 18.5294 47 23.5 47C36.4787 47 47 36.4787 47 23.5C47 18.5294 45.4568 13.9193 42.8234 10.1226C42.2483 9.29347 41.6213 8.50316 40.947 7.75636C40.4085 7.16005 39.84 6.59148 39.2437 6.05304ZM34.5401 9.92055C31.5254 7.46505 27.6865 6 23.5 6C13.835 6 6 13.835 6 23.5C6 27.6865 7.46505 31.5254 9.92055 34.5401L34.5401 9.92055ZM14.4584 38.4876L38.4876 14.4584C40.084 17.0969 41 20.1877 41 23.5C41 33.165 33.165 41 23.5 41C20.1877 41 17.0969 40.084 14.4584 38.4876Z" fill="#FF3B3B"/>
</svg>
