<svg width="24" height="24" viewBox="0 0 24 24" fill="none" xmlns="http://www.w3.org/2000/svg">
<path fill-rule="evenodd" clip-rule="evenodd" d="M5.63586 5.63563C9.15046 2.12102 14.8496 2.12124 18.3644 5.63563C21.8791 9.15035 21.8791 14.8494 18.3644 18.3641C14.9595 21.7689 9.50476 21.8754 5.97179 18.6835L5.63586 18.3641C2.12148 14.8494 2.12128 9.15024 5.63586 5.63563ZM6.1925 7.25281C3.77867 10.1987 3.94675 14.5536 6.6964 17.3036C9.44632 20.0535 13.8002 20.2203 16.7462 17.8065L6.1925 7.25281ZM17.3038 6.69617C14.5538 3.94652 10.1989 3.77844 7.25304 6.19227L17.8068 16.746C20.2206 13.8 20.0538 9.44611 17.3038 6.69617Z" fill="white"/>
</svg>
