<svg width="24" height="24" viewBox="0 0 24 24" fill="none" xmlns="http://www.w3.org/2000/svg">
<path d="M12.3332 18.6667C13.4378 18.6653 14.4969 18.2259 15.278 17.4448C16.0591 16.6637 16.4985 15.6047 16.4998 14.5V7.20251C16.5011 6.76448 16.4155 6.33054 16.2478 5.92586C16.0802 5.52118 15.8339 5.1538 15.5232 4.84501L13.6548 2.97668C13.346 2.66599 12.9787 2.41968 12.574 2.25203C12.1693 2.08438 11.7354 1.99872 11.2973 2.00001H7.33317C6.22851 2.00134 5.16947 2.44075 4.38835 3.22186C3.60724 4.00298 3.16783 5.06202 3.1665 6.16668V14.5C3.16783 15.6047 3.60724 16.6637 4.38835 17.4448C5.16947 18.2259 6.22851 18.6653 7.33317 18.6667H12.3332ZM4.83317 14.5V6.16668C4.83317 5.50364 5.09656 4.86775 5.5654 4.39891C6.03424 3.93007 6.67013 3.66668 7.33317 3.66668C7.33317 3.66668 11.4323 3.67835 11.4998 3.68668V5.33335C11.4998 5.77537 11.6754 6.1993 11.988 6.51186C12.3005 6.82442 12.7245 7.00001 13.1665 7.00001H14.8132C14.8215 7.06751 14.8332 14.5 14.8332 14.5C14.8332 15.163 14.5698 15.7989 14.1009 16.2678C13.6321 16.7366 12.9962 17 12.3332 17H7.33317C6.67013 17 6.03424 16.7366 5.5654 16.2678C5.09656 15.7989 4.83317 15.163 4.83317 14.5ZM19.8332 8.66668V17.8333C19.8318 18.938 19.3924 19.997 18.6113 20.7782C17.8302 21.5593 16.7712 21.9987 15.6665 22H8.1665C7.94549 22 7.73353 21.9122 7.57725 21.7559C7.42097 21.5996 7.33317 21.3877 7.33317 21.1667C7.33317 20.9457 7.42097 20.7337 7.57725 20.5774C7.73353 20.4211 7.94549 20.3333 8.1665 20.3333H15.6665C16.3295 20.3333 16.9654 20.0699 17.4343 19.6011C17.9031 19.1323 18.1665 18.4964 18.1665 17.8333V8.66668C18.1665 8.44566 18.2543 8.2337 18.4106 8.07742C18.5669 7.92114 18.7788 7.83334 18.9998 7.83334C19.2208 7.83334 19.4328 7.92114 19.5891 8.07742C19.7454 8.2337 19.8332 8.44566 19.8332 8.66668Z" fill="#252525" fill-opacity="0.5"/>
</svg>
