<svg width="24" height="24" viewBox="0 0 24 24" fill="none" xmlns="http://www.w3.org/2000/svg">
<path d="M24 9C24 7.343 21.538 6 18.5 6C15.462 6 13 7.343 13 9C13 10.657 15.462 12 18.5 12C21.538 12 24 10.657 24 9ZM24 16.5V14.5C24 16.471 21.708 18 18.5 18C15.292 18 13 16.471 13 14.5V16.5C13 18.495 15.364 20 18.5 20C21.636 20 24 18.495 24 16.5ZM24 12.5V10.5C24 12.471 21.708 14 18.5 14C15.292 14 13 12.471 13 10.5V12.5C13 14.495 15.364 16 18.5 16C21.636 16 24 14.495 24 12.5ZM13 17C13 15.343 10.538 14 7.5 14C4.462 14 2 15.343 2 17C2 18.657 4.462 20 7.5 20C10.538 20 13 18.657 13 17ZM16.579 4.159C14.979 1.66 12.186 0 9 0C4.029 0 0 4.029 0 9C0 10.829 0.549 12.528 1.486 13.948C2.831 12.751 4.979 12 7.5 12C8.785 12 9.965 12.204 11 12.554V9C11 6.596 13.296 4.697 16.579 4.159ZM9 10H6.5C5.948 10 5.5 9.552 5.5 9C5.5 8.448 5.948 8 6.5 8H8V5.5C8 4.948 8.448 4.5 9 4.5C9.552 4.5 10 4.948 10 5.5V9C10 9.552 9.552 10 9 10ZM24 18.5V20.5C24 22.495 21.636 24 18.5 24C15.364 24 13 22.495 13 20.5V18.5C13 20.471 15.292 22 18.5 22C21.708 22 24 20.471 24 18.5ZM13 18.5V20.5C13 22.495 10.636 24 7.5 24C4.364 24 2 22.495 2 20.5V18.5C2 20.471 4.292 22 7.5 22C10.708 22 13 20.471 13 18.5Z" fill="white"/>
</svg>
