<svg width="21" height="17" viewBox="0 0 21 17" fill="none" xmlns="http://www.w3.org/2000/svg">
<path fill-rule="evenodd" clip-rule="evenodd" d="M10.2499 4.5C11.3108 4.5 12.3279 4.92173 13.0781 5.67188C13.8282 6.42202 14.2499 7.43913 14.2499 8.5C14.2499 9.56087 13.8282 10.578 13.0781 11.3281C12.3279 12.0783 11.3108 12.5 10.2499 12.5C9.18907 12.5 8.17196 12.0783 7.42181 11.3281C6.67167 10.578 6.24994 9.56087 6.24994 8.5C6.24994 7.43913 6.67167 6.42202 7.42181 5.67188C8.17196 4.92173 9.18907 4.5 10.2499 4.5ZM10.2499 6.5C9.7195 6.5 9.21095 6.71087 8.83587 7.08594C8.4608 7.46101 8.24994 7.96957 8.24994 8.5C8.24994 9.03043 8.4608 9.53899 8.83587 9.91406C9.21095 10.2891 9.7195 10.5 10.2499 10.5C10.7804 10.5 11.2889 10.2891 11.664 9.91406C12.0391 9.53899 12.2499 9.03043 12.2499 8.5C12.2499 7.96957 12.0391 7.46101 11.664 7.08594C11.2889 6.71087 10.7804 6.5 10.2499 6.5Z" fill="white"/>
<path fill-rule="evenodd" clip-rule="evenodd" d="M10.2499 0.5C14.9641 0.50003 18.6457 3.76541 20.1933 8.16797C20.2687 8.38258 20.2687 8.61742 20.1933 8.83203C18.6457 13.2346 14.9641 16.5 10.2499 16.5C5.53571 16.5 1.85414 13.2346 0.306577 8.83203C0.231141 8.61741 0.231141 8.38259 0.306577 8.16797C1.85414 3.7654 5.53571 0.5 10.2499 0.5ZM10.2499 2.5C6.67748 2.5 3.70552 4.89298 2.31537 8.5C3.70552 12.107 6.67748 14.5 10.2499 14.5C13.8223 14.5 16.7933 12.1068 18.1835 8.5C16.7933 4.89317 13.8223 2.50003 10.2499 2.5Z" fill="white"/>
</svg>
