<svg width="24" height="24" viewBox="0 0 24 24" fill="none" xmlns="http://www.w3.org/2000/svg">
<path fill-rule="evenodd" clip-rule="evenodd" d="M12.0001 8.48715C13.064 8.48843 14.0839 8.91161 14.8362 9.66389C15.5885 10.4162 16.0117 11.4361 16.0129 12.5C16.0129 13.2937 15.7776 14.0695 15.3366 14.7294C14.8957 15.3893 14.269 15.9036 13.5357 16.2074C12.8025 16.5111 11.9956 16.5906 11.2172 16.4357C10.4388 16.2809 9.72379 15.8987 9.16258 15.3375C8.60138 14.7763 8.21919 14.0613 8.06436 13.2829C7.90952 12.5045 7.989 11.6976 8.29272 10.9644C8.59644 10.2311 9.11077 9.60437 9.77068 9.16344C10.4306 8.72251 11.2064 8.48715 12.0001 8.48715ZM12.9215 10.2756C12.4815 10.0934 11.9974 10.0457 11.5304 10.1386C11.0633 10.2315 10.6343 10.4608 10.2976 10.7975C9.96086 11.1342 9.73154 11.5632 9.63864 12.0303C9.54574 12.4973 9.59344 12.9815 9.77568 13.4214C9.95791 13.8613 10.2665 14.2374 10.6624 14.5019C11.0584 14.7665 11.5239 14.9077 12.0001 14.9077C12.6386 14.9077 13.2511 14.654 13.7026 14.2025C14.1541 13.751 14.4078 13.1386 14.4078 12.5C14.4078 12.0238 14.2666 11.5583 14.002 11.1623C13.7375 10.7664 13.3614 10.4578 12.9215 10.2756Z" fill="#252525" fill-opacity="0.5"/>
<path fill-rule="evenodd" clip-rule="evenodd" d="M12.0001 5C16.9696 5 19.801 8.40128 21.0458 10.4286C21.4306 11.051 21.6345 11.7683 21.6345 12.5C21.6345 13.2317 21.4306 13.949 21.0458 14.5714C19.801 16.5987 16.9696 20 12.0001 20C7.03059 20 4.19913 16.5987 2.95435 14.5714C2.56954 13.949 2.36572 13.2317 2.36572 12.5C2.36572 11.7683 2.56954 11.051 2.95435 10.4286C4.19913 8.40128 7.0306 5 12.0001 5ZM12.0001 6.60515C7.8115 6.60515 5.39177 9.53049 4.32275 11.2689C4.09413 11.6388 3.973 12.0651 3.973 12.5C3.973 12.9349 4.09413 13.3612 4.32275 13.7311C5.39177 15.4695 7.8115 18.3949 12.0001 18.3949C16.1887 18.3949 18.6084 15.4695 19.6774 13.7311C19.906 13.3612 20.0272 12.9349 20.0272 12.5C20.0272 12.0651 19.906 11.6388 19.6774 11.2689C18.6084 9.52728 16.1887 6.60515 12.0001 6.60515Z" fill="#252525" fill-opacity="0.5"/>
</svg>
