<svg width="24" height="24" viewBox="0 0 24 24" fill="none" xmlns="http://www.w3.org/2000/svg">
<g clip-path="url(#clip0_16532_127261)">
<path d="M12 2.89014C18.6668 2.89017 24 9.39014 24 11.8901C24 14.3901 17.7807 20.8901 12 20.8901C6.2193 20.8901 0 14.3901 0 11.8901C0 9.39014 5.33314 2.89014 12 2.89014ZM12 4.39014C9.15192 4.39014 6.4929 5.78871 4.5 7.5708C3.51227 8.45407 2.73046 9.39548 2.20703 10.228C1.64792 11.1174 1.5 11.6959 1.5 11.8901C1.5 12.0245 1.6469 12.5729 2.29004 13.4907C2.88045 14.3332 3.74919 15.2871 4.80469 16.1851C6.95932 18.018 9.62163 19.3901 12 19.3901C14.3784 19.3901 17.0407 18.018 19.1953 16.1851C20.2508 15.2871 21.1196 14.3332 21.71 13.4907C22.3531 12.573 22.5 12.0245 22.5 11.8901C22.5 11.6959 22.3521 11.1174 21.793 10.228C21.2695 9.39548 20.4877 8.45407 19.5 7.5708C17.5071 5.78871 14.8481 4.39015 12 4.39014ZM12 7.14014C14.6233 7.14016 16.75 9.2668 16.75 11.8901C16.75 14.5135 14.6233 16.6401 12 16.6401C9.37665 16.6401 7.25 14.5135 7.25 11.8901C7.25 9.26678 9.37665 7.14014 12 7.14014ZM12 8.64014C10.2051 8.64014 8.75 10.0952 8.75 11.8901C8.75 13.6851 10.2051 15.1401 12 15.1401C13.7949 15.1401 15.25 13.685 15.25 11.8901C15.25 10.0952 13.7949 8.64016 12 8.64014Z" fill="white"/>
</g>
<defs>
<clipPath id="clip0_16532_127261">
<rect width="24" height="24" fill="white"/>
</clipPath>
</defs>
</svg>
