<svg width="13" height="12" viewBox="0 0 13 12" fill="none" xmlns="http://www.w3.org/2000/svg">
<path d="M0.92857 4.86796H10.2143L7.15929 1.81296C7.07225 1.72664 7.00317 1.62393 6.95603 1.51078C6.90889 1.39762 6.88462 1.27626 6.88462 1.15367C6.88462 1.03109 6.90889 0.909721 6.95603 0.796566C7.00317 0.68341 7.07225 0.58071 7.15929 0.494387C7.33326 0.32144 7.56861 0.224365 7.81393 0.224365C8.05924 0.224365 8.29459 0.32144 8.46857 0.494387L12.4521 4.48724C12.8009 4.83393 12.9979 5.30478 13 5.79653C12.9955 6.28506 12.7986 6.75212 12.4521 7.09653L8.46857 11.0894C8.38199 11.1754 8.27933 11.2434 8.16644 11.2897C8.05355 11.336 7.93265 11.3596 7.81065 11.3592C7.68864 11.3588 7.56791 11.3343 7.45535 11.2872C7.34279 11.2401 7.24061 11.1713 7.15464 11.0847C7.06867 10.9982 7.0006 10.8955 6.95431 10.7826C6.90801 10.6697 6.88441 10.5488 6.88484 10.4268C6.88527 10.3048 6.90973 10.1841 6.95682 10.0715C7.00391 9.95896 7.07271 9.85678 7.15929 9.77082L10.2143 6.7251H0.92857C0.682298 6.7251 0.446112 6.62727 0.271971 6.45313C0.0978298 6.27899 -9.53674e-07 6.0428 -9.53674e-07 5.79653C-9.53674e-07 5.55026 0.0978298 5.31407 0.271971 5.13993C0.446112 4.96579 0.682298 4.86796 0.92857 4.86796Z" fill="#323232"/>
</svg>
