<svg width="24" height="24" viewBox="0 0 24 24" fill="none" xmlns="http://www.w3.org/2000/svg">
<rect width="24" height="24" rx="4" fill="#194E98"/>
<path d="M6.75284 16V15.3608L9.15341 12.733C9.43513 12.4252 9.66714 12.1577 9.84943 11.9304C10.0317 11.7008 10.1667 11.4853 10.2543 11.2841C10.3442 11.0805 10.3892 10.8674 10.3892 10.6449C10.3892 10.3892 10.3277 10.1679 10.2045 9.98082C10.0838 9.7938 9.91809 9.64938 9.70739 9.54759C9.49669 9.44579 9.25994 9.39489 8.99716 9.39489C8.7178 9.39489 8.47396 9.45289 8.26562 9.56889C8.05966 9.68253 7.89986 9.84233 7.78622 10.0483C7.67495 10.2543 7.61932 10.4957 7.61932 10.7727H6.78125C6.78125 10.3466 6.8795 9.97254 7.07599 9.65057C7.27249 9.3286 7.54001 9.07765 7.87855 8.89773C8.21946 8.7178 8.6018 8.62784 9.02557 8.62784C9.4517 8.62784 9.82931 8.7178 10.1584 8.89773C10.4875 9.07765 10.7455 9.32031 10.9325 9.62571C11.1196 9.93111 11.2131 10.2708 11.2131 10.6449C11.2131 10.9124 11.1645 11.174 11.0675 11.4297C10.9728 11.683 10.8071 11.9659 10.5703 12.2784C10.3359 12.5885 10.0104 12.9673 9.59375 13.4148L7.96023 15.1619V15.2188H11.3409V16H6.75284ZM12.0808 14.5085V13.7841L15.2768 8.72727H15.8024V9.84943H15.4473L13.0325 13.6705V13.7273H17.3365V14.5085H12.0808ZM15.5041 16V14.2884V13.951V8.72727H16.3422V16H15.5041Z" fill="white"/>
</svg>
