<svg width="22" height="21" viewBox="0 0 22 21" fill="none" xmlns="http://www.w3.org/2000/svg">
<g clip-path="url(#clip0_8203_40892)">
<path d="M16.5 12.6875C16.4694 14.4121 13.9056 14.4121 13.875 12.6875C13.9056 10.9629 16.4694 10.9629 16.5 12.6875ZM6.826 12.25H8.674L7.75 9.17L6.826 12.25ZM21.75 6.125V14.875C21.75 17.2874 19.7874 19.25 17.375 19.25H5.125C2.71263 19.25 0.75 17.2874 0.75 14.875V6.125C0.75 3.71263 2.71263 1.75 5.125 1.75H17.375C19.7874 1.75 21.75 3.71263 21.75 6.125ZM11.2133 14.6239L8.58825 5.87388C8.37213 5.0575 7.12787 5.05838 6.91175 5.87388L4.28675 14.6239C3.963 15.7211 5.62988 16.2216 5.96325 15.1261L6.301 14H9.199L9.53675 15.1261C9.675 15.5934 10.1755 15.8524 10.6261 15.7133C11.089 15.5741 11.3524 15.0868 11.2133 14.6239ZM18.25 6.125C18.2447 4.9805 16.5052 4.98138 16.5 6.125V9.93213C14.554 8.9285 12.0716 10.4904 12.125 12.6875C12.0638 14.9608 14.722 16.5235 16.6628 15.3545C17.0915 16.0738 18.2798 15.7168 18.25 14.875V6.125Z" fill="#0069FF"/>
</g>
<defs>
<clipPath id="clip0_8203_40892">
<rect width="21" height="21" fill="white" transform="translate(0.75)"/>
</clipPath>
</defs>
</svg>
