<svg width="13" height="17" viewBox="0 0 13 17" fill="none" xmlns="http://www.w3.org/2000/svg">
<path id="Vector 71" d="M3.87058 4.14645C3.67532 4.34171 3.67532 4.65829 3.87058 4.85355L7.05257 8.03553C7.24783 8.2308 7.56441 8.2308 7.75967 8.03553C7.95493 7.84027 7.95493 7.52369 7.75967 7.32843L4.93124 4.5L7.75967 1.67157C7.95493 1.47631 7.95493 1.15973 7.75967 0.964466C7.56441 0.769204 7.24783 0.769204 7.05257 0.964466L3.87058 4.14645ZM6.5 4H4.22414V5H6.5V4ZM13 10.5C13 6.91015 10.0899 4 6.5 4V5C9.53757 5 12 7.46243 12 10.5H13ZM6.5 17C10.0899 17 13 14.0899 13 10.5H12C12 13.5376 9.53757 16 6.5 16V17ZM6.5 16C3.46243 16 1 13.5376 1 10.5H0C0 14.0899 2.91015 17 6.5 17V16Z" fill="white"/>
</svg>
