<svg width="35" height="25" viewBox="0 0 35 25" fill="none" xmlns="http://www.w3.org/2000/svg">
<g id="visability=false">
<path id="Subtract" fill-rule="evenodd" clip-rule="evenodd" d="M11.2848 7.12927C10.7038 8.13503 10.3713 9.29806 10.3713 10.5417C10.3713 14.4111 13.5897 17.5 17.4999 17.5C18.8924 17.5 20.1971 17.1083 21.3 16.4291L19.757 14.9962C19.078 15.3185 18.3128 15.5 17.4999 15.5C14.6407 15.5 12.3713 13.2538 12.3713 10.5417C12.3713 9.8328 12.5264 9.15571 12.8065 8.54225L11.2848 7.12927ZM21.3846 13.7784C22.1616 12.906 22.6285 11.7718 22.6285 10.5417C22.6285 7.82966 20.3591 5.58337 17.4999 5.58337C16.1384 5.58337 14.9106 6.09276 13.9979 6.91925L12.5284 5.55475C13.8167 4.33238 15.5744 3.58337 17.4999 3.58337C21.4102 3.58337 24.6285 6.67236 24.6285 10.5417C24.6285 12.3112 23.9554 13.9176 22.8509 15.1399L21.3846 13.7784Z" fill="#7A7A7A"/>
<g id="Vector 9">
<path d="M15 16.5C13 15.3 12.4453 10.9561 12.418 8.93417L21.4154 17.3448C20.1103 17.5632 17 17.7 15 16.5Z" fill="#7A7A7A"/>
<path d="M5 2L12.418 8.93417M28 23.5L21.4154 17.3448M12.418 8.93417C12.4453 10.9561 13 15.3 15 16.5C17 17.7 20.1103 17.5632 21.4154 17.3448M12.418 8.93417L21.4154 17.3448" stroke="#7A7A7A" stroke-width="2" stroke-linecap="round"/>
</g>
<path id="Subtract_2" fill-rule="evenodd" clip-rule="evenodd" d="M7.63466 3.73971C5.07877 5.3498 2.81239 7.62595 1.08151 10.5608C0.896657 10.8743 0.896657 11.2634 1.08151 11.5768C6.34832 20.5072 16.5455 23.1929 24.7856 19.6656L23.1611 18.1571C16.1134 20.7346 7.73312 18.3789 3.11431 11.0687C4.73908 8.49491 6.82663 6.5217 9.15656 5.1529L7.63466 3.73971ZM25.1524 17.2769C27.7738 15.9064 30.1199 13.7909 31.8915 10.9317C27.1581 3.29934 18.301 1.0854 11.0594 4.19057L9.47415 2.71852C17.8708 -1.35077 28.5475 1.14473 33.9226 10.4307C34.102 10.7406 34.102 11.1227 33.9226 11.4326C32.0528 14.6629 29.5379 17.0902 26.699 18.713L25.1524 17.2769Z" fill="#7A7A7A"/>
</g>
</svg>
