<svg width="33" height="33" viewBox="0 0 33 33" fill="none" xmlns="http://www.w3.org/2000/svg">
<g id="iconoir:pause-solid">
<path id="Vector" d="M8.2334 25.0333V7.96666C8.2334 7.75449 8.31768 7.55101 8.46771 7.40098C8.61774 7.25095 8.82123 7.16666 9.0334 7.16666H12.7667C12.9789 7.16666 13.1824 7.25095 13.3324 7.40098C13.4824 7.55101 13.5667 7.75449 13.5667 7.96666V25.0333C13.5667 25.2455 13.4824 25.449 13.3324 25.599C13.1824 25.749 12.9789 25.8333 12.7667 25.8333H9.0334C8.82123 25.8333 8.61774 25.749 8.46771 25.599C8.31768 25.449 8.2334 25.2455 8.2334 25.0333ZM18.9001 25.0333V7.96666C18.9001 7.75449 18.9844 7.55101 19.1344 7.40098C19.2844 7.25095 19.4879 7.16666 19.7001 7.16666H23.4334C23.6456 7.16666 23.8491 7.25095 23.9991 7.40098C24.1491 7.55101 24.2334 7.75449 24.2334 7.96666V25.0333C24.2334 25.2455 24.1491 25.449 23.9991 25.599C23.8491 25.749 23.6456 25.8333 23.4334 25.8333H19.7001C19.4879 25.8333 19.2844 25.749 19.1344 25.599C18.9844 25.449 18.9001 25.2455 18.9001 25.0333Z" fill="#0069FF" stroke="#0069FF" stroke-width="1.5"/>
</g>
</svg>
