<svg width="22" height="22" viewBox="0 0 22 22" fill="none" xmlns="http://www.w3.org/2000/svg">
<g clip-path="url(#clip0_8203_40905)">
<path d="M21.2713 19.1602L19.3262 21.2253C19.1538 21.4081 18.9219 21.5 18.6892 21.5C18.4739 21.5 18.2578 21.4213 18.0889 21.262C17.7372 20.9304 17.7205 20.3765 18.0522 20.0247L19.1354 18.875H16.5017C16.0187 18.875 15.6267 18.483 15.6267 18C15.6267 17.517 16.0187 17.125 16.5017 17.125H19.1363L18.0522 15.9753C17.7214 15.6235 17.7372 15.0696 18.0889 14.738C18.4398 14.4081 18.9937 14.423 19.3262 14.7747L21.2897 16.8581C21.9109 17.4785 21.9109 18.5206 21.2713 19.1602ZM3.17717 7.22525C3.34954 7.40812 3.58142 7.5 3.81417 7.5C4.02942 7.5 4.24554 7.42125 4.41442 7.262C4.76617 6.93038 4.78279 6.3765 4.45117 6.02475L3.36704 4.875H6.00167C6.48467 4.875 6.87667 4.483 6.87667 4C6.87667 3.517 6.48467 3.125 6.00167 3.125H3.36792L4.45117 1.97525C4.78192 1.6235 4.76617 1.06963 4.41442 0.738C4.06354 0.40725 3.50879 0.423 3.17717 0.77475L1.23204 2.83975C0.592416 3.47938 0.592416 4.51975 1.21367 5.141L3.17717 7.22525ZM15.1384 8.6375H13.3053V10.3H15.1384C15.5969 10.3 15.9697 9.92725 15.9697 9.46875C15.9697 9.01025 15.5969 8.6375 15.1384 8.6375ZM15.806 6.40625C15.806 5.94775 15.4333 5.575 14.9748 5.575H13.3053V7.2375H14.9748C15.4333 7.2375 15.806 6.86475 15.806 6.40625ZM14.3133 0.5C10.213 0.5 6.87667 3.83638 6.87667 7.9375C6.87667 12.0386 10.213 15.375 14.3142 15.375C18.4153 15.375 21.7517 12.0386 21.7517 7.9375C21.7517 3.83638 18.4153 0.5 14.3142 0.5L14.3133 0.5ZM15.1375 11.7H15.0124V12.0938C15.0124 12.4805 14.6992 12.7937 14.3124 12.7937C13.9257 12.7937 13.6124 12.4805 13.6124 12.0938V11.7H13.0419C12.4145 11.7 11.9044 11.1899 11.9044 10.5625V5.3125C11.9044 4.68512 12.4145 4.175 13.0419 4.175H13.6124V3.76463C13.6124 3.37787 13.9257 3.06463 14.3124 3.06463C14.6992 3.06463 15.0124 3.37787 15.0124 3.76463V4.17937C16.2243 4.20037 17.2043 5.18913 17.2043 6.40625C17.2043 6.95662 17.0039 7.4615 16.6723 7.85087C17.101 8.25775 17.3679 8.83263 17.3679 9.46875C17.3679 10.699 16.3678 11.7 15.1375 11.7ZM14.3133 17.125C9.23917 17.125 5.12579 13.0116 5.12579 7.9375C5.12579 7.83687 5.13804 7.73888 5.14067 7.63913C2.56117 8.739 0.751666 11.2984 0.751666 14.2812C0.751666 18.2677 3.98392 21.5 7.97042 21.5C10.9533 21.5 13.5127 19.6905 14.6125 17.1101C14.5128 17.1136 14.4148 17.125 14.3142 17.125H14.3133Z" fill="#0069FF"/>
</g>
<defs>
<clipPath id="clip0_8203_40905">
<rect width="21" height="21" fill="white" transform="translate(0.75 0.5)"/>
</clipPath>
</defs>
</svg>
