<svg width="16" height="16" viewBox="0 0 16 16" fill="none" xmlns="http://www.w3.org/2000/svg">
<path d="M15.0424 4.70633L11.3291 0.991824C11.0664 0.719776 10.7164 0.548861 10.3404 0.508984C9.96449 0.469107 9.5865 0.562808 9.27261 0.773691C9.08755 0.905408 8.93343 1.07594 8.82099 1.2734C8.70855 1.47086 8.64051 1.69049 8.6216 1.91697C8.60269 2.14346 8.63338 2.37134 8.71152 2.58474C8.78965 2.79813 8.91336 2.9919 9.07402 3.15252L9.44373 3.52191C9.53792 3.61676 9.59079 3.74506 9.59079 3.8788C9.59079 4.01253 9.53792 4.14083 9.44373 4.23568L8.13226 5.54823C8.01717 5.66291 7.87437 5.74581 7.71776 5.78886C7.56115 5.8319 7.39607 5.83363 7.2386 5.79386L6.7265 5.66261C6.13595 5.50833 5.52244 5.46196 4.91544 5.52573C4.51653 5.56725 4.13779 5.72205 3.82388 5.97188C3.50998 6.22171 3.27398 6.55615 3.14371 6.93578C3.00103 7.32819 2.97325 7.75321 3.06363 8.16088C3.15401 8.56855 3.35881 8.94192 3.65393 9.23711L4.74432 10.3671L0.690654 14.4254C0.631008 14.4831 0.583431 14.552 0.550702 14.6283C0.517972 14.7045 0.500744 14.7866 0.500024 14.8695C0.499303 14.9525 0.515104 15.0348 0.546505 15.1117C0.577905 15.1885 0.624277 15.2582 0.682913 15.3169C0.74155 15.3756 0.811277 15.422 0.888027 15.4535C0.964776 15.4849 1.04701 15.5007 1.12993 15.5C1.21285 15.4993 1.2948 15.482 1.37099 15.4493C1.44719 15.4165 1.5161 15.3689 1.57371 15.3092L5.61238 11.2672L6.39302 12.076C6.92221 12.6379 7.65214 12.9673 8.42328 12.9922C8.67258 12.9925 8.92011 12.9502 9.1552 12.8672C9.51398 12.7433 9.82917 12.518 10.0626 12.2184C10.296 11.9189 10.4377 11.5581 10.4704 11.1797C10.5336 10.5777 10.4883 9.96931 10.3368 9.38336L10.2044 8.74209C10.1672 8.58568 10.1707 8.42237 10.2144 8.26769C10.2582 8.113 10.3407 7.97207 10.4542 7.85831L11.7588 6.55451C11.8602 6.46135 11.9915 6.4073 12.1291 6.40201C12.1895 6.40189 12.2494 6.41382 12.3051 6.4371C12.3609 6.46039 12.4114 6.49457 12.4538 6.53764L12.7698 6.8539C13.0312 7.13321 13.3835 7.31016 13.7635 7.35299C14.1435 7.39583 14.5263 7.30176 14.8432 7.08766C15.0283 6.95599 15.1825 6.78549 15.295 6.58806C15.4075 6.39063 15.4756 6.17101 15.4945 5.94452C15.5135 5.71804 15.4829 5.49014 15.4048 5.27672C15.3267 5.0633 15.203 4.86949 15.0424 4.70883V4.70633Z" fill="white"/>
</svg>
