<svg width="17" height="16" viewBox="0 0 17 16" fill="none" xmlns="http://www.w3.org/2000/svg">
<g id="Subtract">
<path id="Subtract_2" fill-rule="evenodd" clip-rule="evenodd" d="M10.4106 0.5C11.1375 0.684582 11.8233 0.972039 12.4516 1.34596C12.1552 2.09429 12.3096 2.97981 12.915 3.58517C13.5204 4.19054 14.4059 4.345 15.1543 4.04856C15.528 4.67655 15.8154 5.36195 16 6.08835C15.2605 6.40757 14.7429 7.14333 14.7429 7.99999C14.7429 8.85665 15.2605 9.59241 16 9.91162C15.8154 10.6382 15.5279 11.3237 15.1541 11.9518C14.4055 11.6549 13.5195 11.8092 12.9139 12.4148C12.3084 13.0203 12.154 13.9061 12.4507 14.6546C11.8226 15.0282 11.1371 15.3155 10.4106 15.5C10.0913 14.7608 9.35566 14.2435 8.49921 14.2435C7.64291 14.2435 6.9074 14.7606 6.58795 15.4996C5.86172 15.315 5.17648 15.0277 4.54862 14.6541C4.84509 13.9057 4.69063 13.0202 4.08524 12.4148C3.47984 11.8094 2.59426 11.655 1.84589 11.9514C1.47203 11.3232 1.18459 10.6376 1 9.91094C1.73869 9.59137 2.25555 8.85604 2.25555 7.99999C2.25555 7.14395 1.73869 6.40862 1 6.08904C1.18457 5.36249 1.47194 4.67697 1.84571 4.04886C2.59388 4.34483 3.47896 4.19025 4.08411 3.58512C4.68934 2.9799 4.84388 2.09467 4.54773 1.34646C5.17584 0.972566 5.86138 0.685081 6.58796 0.500402C6.90741 1.23938 7.64292 1.75649 8.49921 1.75649C9.35565 1.75649 10.0913 1.23919 10.4106 0.5ZM8.50009 4.99777C6.28965 4.99777 5.49774 5.78963 5.49774 8C5.49774 10.2104 6.28965 11.0022 8.50009 11.0022C10.7105 11.0022 11.5024 10.2104 11.5024 8C11.5024 5.78963 10.7105 4.99777 8.50009 4.99777Z" stroke="white" stroke-linejoin="round"/>
</g>
</svg>
