<svg width="24" height="24" viewBox="0 0 24 24" fill="none" xmlns="http://www.w3.org/2000/svg">
<rect x="1.56982" y="5.49023" width="16.695" height="16.6944" rx="2" stroke="white" stroke-width="2"/>
<path fill-rule="evenodd" clip-rule="evenodd" d="M22.6881 16.6032C22.6881 16.8702 22.9296 16.9062 22.9296 16.6392V4.31592C22.9296 2.93528 21.8102 1.81604 20.4296 1.81592H8.10533C7.83715 1.81592 7.87336 2.05852 8.14154 2.05852H20.6881C21.7926 2.05852 22.6881 2.95395 22.6881 4.05852V16.6032Z" fill="white" fill-opacity="0.5"/>
<path d="M20.4296 1.81592L20.4296 0.815918H20.4296V1.81592ZM22.9296 4.31592H21.9296V16.6392H22.9296H23.9296V4.31592H22.9296ZM20.4296 1.81592L20.4295 2.81592C21.2579 2.81599 21.9296 3.48766 21.9296 4.31592H22.9296H23.9296C23.9296 2.38291 22.3624 0.816093 20.4296 0.815918L20.4296 1.81592ZM8.10533 1.81592V2.81592H20.4296V1.81592V0.815918H8.10533V1.81592ZM8.14154 2.05852V3.05852H20.6881V2.05852V1.05852H8.14154V2.05852ZM20.6881 2.05852V3.05852C21.2403 3.05852 21.6881 3.50623 21.6881 4.05852H22.6881H23.6881C23.6881 2.40166 22.3449 1.05852 20.6881 1.05852V2.05852ZM22.6881 4.05852H21.6881V16.6032H22.6881H23.6881V4.05852H22.6881ZM8.10533 1.81592V0.815918C7.90493 0.815918 7.61819 0.859015 7.35764 1.05571C7.06907 1.27355 6.86867 1.65214 6.93326 2.08485C7.0528 2.88572 7.81697 3.05852 8.14154 3.05852V2.05852V1.05852C8.2198 1.05852 8.35792 1.0758 8.50955 1.16921C8.65367 1.258 8.86152 1.45578 8.91134 1.78959C8.96688 2.16164 8.79095 2.47959 8.56264 2.65194C8.36234 2.80315 8.17165 2.81592 8.10533 2.81592V1.81592ZM22.9296 16.6392H21.9296C21.9296 16.5726 21.9424 16.3818 22.0935 16.1815C22.2658 15.9532 22.5837 15.7769 22.9561 15.8324C23.2903 15.8821 23.4883 16.0902 23.5772 16.2346C23.6707 16.3864 23.6881 16.5247 23.6881 16.6032H22.6881H21.6881C21.6881 16.9268 21.8604 17.6912 22.6615 17.8106C23.0943 17.875 23.4726 17.6743 23.6901 17.386C23.8865 17.1256 23.9296 16.8392 23.9296 16.6392H22.9296Z" fill="white"/>
</svg>
