<svg width="27" height="26" viewBox="0 0 27 26" fill="none" xmlns="http://www.w3.org/2000/svg">
<rect x="1.92969" y="6" width="18" height="18" rx="5" stroke="white" stroke-opacity="0.5" stroke-width="3"/>
<path fill-rule="evenodd" clip-rule="evenodd" d="M23.5085 4.71091C23.21 4.20998 22.7899 3.78989 22.289 3.49134C21.288 2.74297 20.0456 2.2998 18.6997 2.2998H8.29969C8.17544 2.2998 8.05207 2.30358 7.92969 2.31103C9.12203 0.897726 10.9062 0 12.9 0H20.4996C24.0895 0 26.9996 2.91015 26.9996 6.5V14.0996C26.9996 16.0935 26.1018 17.8778 24.6884 19.0701C24.6959 18.9476 24.6997 18.8242 24.6997 18.6998V8.2998C24.6997 6.95406 24.2566 5.7118 23.5085 4.71091Z" fill="white" fill-opacity="0.5"/>
</svg>
