<svg width="18" height="14" viewBox="0 0 18 14" fill="none" xmlns="http://www.w3.org/2000/svg">
<g id="Property 1=Variant2">
<path id="Vector" d="M1.48346 10.3374C1.51994 10.1992 1.49546 10.0519 1.4162 9.93281C0.825894 9.04611 0.5 8.05016 0.5 7C0.5 5.74689 0.976952 4.50667 1.89604 3.43683C2.81696 2.36486 4.13992 1.51432 5.70917 1.00876C7.27787 0.503376 9.00871 0.370161 10.6794 0.628628C12.3504 0.887155 13.8725 1.52365 15.057 2.44493C16.2408 3.36565 17.0266 4.52239 17.3427 5.75826C17.6579 6.99085 17.4984 8.27063 16.8736 9.44376C16.2468 10.6206 15.1738 11.6468 13.7696 12.3766C12.3655 13.1063 10.7053 13.5 9 13.5C7.57532 13.5 6.23487 13.2317 5.05979 12.7584C4.97561 12.7245 4.8838 12.7142 4.79419 12.7285L0.67931 13.3852L1.48346 10.3374Z" fill="white" stroke="white" stroke-linecap="round" stroke-linejoin="round"/>
</g>
</svg>
