<svg width="24" height="24" viewBox="0 0 24 24" fill="none" xmlns="http://www.w3.org/2000/svg">
<path d="M12 21C14.1756 21 16.3023 20.4722 18.1113 19.4832C19.9202 18.4943 21.3301 17.0887 22.1627 15.4442C22.9952 13.7996 23.2131 11.99 22.7886 10.2442C22.3642 8.49836 21.3165 6.89471 19.7782 5.63604C18.2398 4.37737 16.2798 3.5202 14.146 3.17294C12.0122 2.82567 9.80047 3.0039 7.79048 3.68509C5.78049 4.36628 4.06253 5.51983 2.85383 6.99987C1.64514 8.47991 1 10.22 1 12C1 13.488 1.44 14.891 2.22222 16.127L1 21L6.95589 20C8.46655 20.64 10.1826 21 12 21Z" fill="white" stroke="white" stroke-linecap="round" stroke-linejoin="round"/>
</svg>
