<svg width="21" height="20" viewBox="0 0 21 20" fill="none" xmlns="http://www.w3.org/2000/svg">
<g id="newpost">
<path id="Rectangle 10" d="M1.74343 2.59064C1.81468 1.87819 2.37819 1.31468 3.09064 1.24343L3.97323 1.15517C8.31359 0.721135 12.6864 0.721135 17.0268 1.15517L17.9094 1.24343C18.6218 1.31468 19.1853 1.87819 19.2566 2.59064C19.7493 7.51793 19.7493 12.4821 19.2566 17.4094C19.1853 18.1218 18.6218 18.6853 17.9094 18.7566L17.0268 18.8448C12.6864 19.2789 8.31359 19.2789 3.97323 18.8448L3.09064 18.7566C2.37819 18.6853 1.81468 18.1218 1.74343 17.4094C1.2507 12.4821 1.2507 7.51793 1.74343 2.59064Z" fill="white" stroke="white"/>
<path id="Vector 14" d="M10.6824 5.45459V14.5455M5.95508 10.1684H15.046" stroke="#252525" stroke-width="2" stroke-linecap="round"/>
</g>
</svg>
