<svg width="94" height="94" viewBox="0 0 94 94" fill="none" xmlns="http://www.w3.org/2000/svg">
<path d="M47.0002 86.1663C41.5821 86.1663 36.4904 85.1382 31.7252 83.082C26.9599 81.0257 22.8147 78.2351 19.2897 74.7101C15.7647 71.1851 12.9741 67.04 10.9179 62.2747C8.86162 57.5094 7.8335 52.4177 7.8335 46.9997C7.8335 41.5816 8.86162 36.49 10.9179 31.7247C12.9741 26.9594 15.7647 22.8143 19.2897 19.2893C22.8147 15.7643 26.9599 12.9736 31.7252 10.9174C36.4904 8.86113 41.5821 7.83301 47.0002 7.83301C50.1335 7.83301 53.1852 8.19204 56.1554 8.91009C59.1255 9.62815 61.9814 10.6726 64.7231 12.0434C65.7022 12.5656 66.3387 13.349 66.6325 14.3934C66.9262 15.4379 66.7467 16.417 66.0939 17.3309C65.4411 18.2448 64.5762 18.8323 63.4991 19.0934C62.422 19.3545 61.3613 19.224 60.3168 18.7018C58.2279 17.7226 56.0575 16.9719 53.8054 16.4497C51.5533 15.9275 49.2849 15.6663 47.0002 15.6663C38.3182 15.6663 30.9255 18.7181 24.822 24.8216C18.7186 30.925 15.6668 38.3177 15.6668 46.9997C15.6668 55.6816 18.7186 63.0743 24.822 69.1778C30.9255 75.2813 38.3182 78.333 47.0002 78.333C55.6821 78.333 63.0748 75.2813 69.1783 69.1778C75.2818 63.0743 78.3335 55.6816 78.3335 46.9997C78.3335 46.4775 78.3172 45.9715 78.2845 45.482C78.2519 44.9924 78.2029 44.4865 78.1377 43.9643C78.0071 42.8545 78.2193 41.7938 78.7741 40.782C79.329 39.7702 80.1613 39.1011 81.271 38.7747C82.3154 38.4483 83.2946 38.5462 84.2085 39.0684C85.1224 39.5906 85.6446 40.374 85.7752 41.4184C85.9057 42.3323 86.0036 43.2462 86.0689 44.1601C86.1342 45.074 86.1668 46.0205 86.1668 46.9997C86.1668 52.4177 85.1387 57.5094 83.0825 62.2747C81.0262 67.04 78.2356 71.1851 74.7106 74.7101C71.1856 78.2351 67.0404 81.0257 62.2752 83.082C57.5099 85.1382 52.4182 86.1663 47.0002 86.1663ZM41.5168 54.0497L77.9418 17.5268C78.6599 16.8087 79.5575 16.4334 80.6345 16.4007C81.7116 16.3681 82.6418 16.7434 83.4252 17.5268C84.1432 18.2448 84.5023 19.1587 84.5023 20.2684C84.5023 21.3781 84.1432 22.292 83.4252 23.0101L44.2585 62.2747C43.4752 63.058 42.5613 63.4497 41.5168 63.4497C40.4724 63.4497 39.5585 63.058 38.7752 62.2747L27.6127 51.1122C26.8946 50.3941 26.5356 49.4802 26.5356 48.3705C26.5356 47.2608 26.8946 46.3469 27.6127 45.6288C28.3307 44.9108 29.2446 44.5518 30.3543 44.5518C31.4641 44.5518 32.3779 44.9108 33.096 45.6288L41.5168 54.0497Z" fill="#AAFF67"/>
</svg>
