<svg width="20" height="20" viewBox="0 0 20 20" fill="none" xmlns="http://www.w3.org/2000/svg">
<g id="Group 52">
<path id="Ellipse 32" d="M18.392 20H1.60802C0.357674 20 -0.412806 18.4016 0.234041 17.1496L8.62603 0.90671C9.25064 -0.302237 10.7494 -0.302237 11.374 0.90671L19.766 17.1496C20.4128 18.4016 19.6423 20 18.392 20Z" fill="#FF3B3B"/>
<path id="!" d="M9.96275 6.11272C10.2872 6.11272 10.5487 6.37879 10.5429 6.70323L10.4288 13.1719C10.4244 13.4261 10.217 13.6298 9.96275 13.6298C9.7085 13.6298 9.50114 13.4261 9.49666 13.1719L9.38256 6.70323C9.37684 6.37879 9.63827 6.11272 9.96275 6.11272ZM10.011 16.6818C9.80204 16.6818 9.62526 16.5916 9.48063 16.4112C9.33599 16.2308 9.26367 16.0103 9.26367 15.7497C9.26367 15.4891 9.33599 15.2686 9.48063 15.0882C9.62526 14.9078 9.80204 14.8176 10.011 14.8176C10.2118 14.8176 10.3806 14.9078 10.5172 15.0882C10.6618 15.2686 10.7341 15.4891 10.7341 15.7497C10.7341 16.0103 10.6618 16.2308 10.5172 16.4112C10.3806 16.5916 10.2118 16.6818 10.011 16.6818Z" fill="white"/>
</g>
</svg>
