<svg width="23" height="22" viewBox="0 0 23 22" fill="none" xmlns="http://www.w3.org/2000/svg">
<g id="newpost">
<path id="Vector 14" d="M11.6814 6.45453V15.5454M6.9541 11.1683H16.045" stroke="white" stroke-width="2" stroke-linecap="round"/>
<path id="Rectangle 10" d="M2.24591 3.54089C2.34084 2.59164 3.09164 1.84084 4.04089 1.74591L4.92348 1.65765C9.29692 1.22031 13.7031 1.22031 18.0765 1.65765L18.9591 1.74591C19.9084 1.84084 20.6592 2.59164 20.7541 3.54089V3.54089C21.2501 8.50126 21.2501 13.4987 20.7541 18.4591V18.4591C20.6592 19.4084 19.9084 20.1592 18.9591 20.2541L18.0765 20.3423C13.7031 20.7797 9.29692 20.7797 4.92348 20.3423L4.04088 20.2541C3.09164 20.1592 2.34084 19.4084 2.24591 18.4591V18.4591C1.74987 13.4987 1.74987 8.50126 2.24591 3.54089V3.54089Z" stroke="white" stroke-width="2"/>
</g>
</svg>
