<svg width="126" height="126" viewBox="0 0 126 126" fill="none" xmlns="http://www.w3.org/2000/svg">
<g id="Peer Logo White 1" clip-path="url(#clip0_1_1125)">
<g id="Layer 1">
<path id="Vector" d="M63.0008 0C28.2068 0 0 28.2068 0 63.0008C0 97.7949 28.2068 126.002 63.0008 126.002C97.7949 126.002 126.002 97.7949 126.002 63.0008C126.002 28.2068 97.7949 0 63.0008 0ZM82.7792 83.0333C78.0627 87.6855 72.5213 90.6698 66.1749 91.8015C59.4952 92.9942 52.507 93.7168 46.8881 98.4432C41.3847 103.071 38.0803 112.646 35.647 119.136C35.4473 115.13 35.383 106.771 35.2642 101.381C35.0085 89.8862 34.7578 79.9219 34.7924 67.2868C34.8007 64.3701 34.9475 61.4336 35.6437 58.5796C38.5389 46.7132 48.3019 36.3266 61.6184 35.5199C72.1947 34.8782 82.8947 40.7545 87.7135 49.8493C88.705 51.7218 89.4622 53.7047 90.0412 55.7322C90.815 58.4443 91.2736 61.2521 91.2043 64.0649C91.0327 70.997 87.6904 78.1897 82.7792 83.0333Z" fill="url(#paint0_linear_1_1125)"/>
<path id="Vector_2" d="M36.3679 55.8361C38.491 42.6929 46.7759 30.678 58.3074 24.0231C69.8389 17.3682 84.3877 16.2068 96.8298 20.9464C109.272 25.686 119.36 36.2326 123.542 48.8727C128.135 62.7534 125.621 78.3382 118.924 91.3346C113.058 102.721 103.955 112.543 92.6527 118.571C75.8059 127.557 54.909 127.49 37.2142 120.318C36.6269 120.081 35.9967 119.794 35.7063 119.23C35.3681 118.573 35.6106 117.779 35.8631 117.087C38.7731 109.086 42.8908 100.977 50.1149 96.4685C57.7135 91.7256 67.4286 91.7833 75.4429 87.7844C83.7443 83.642 89.6255 75.0058 90.4372 65.7641C91.2505 56.5224 86.9678 46.992 79.5177 41.4638C72.8149 36.49 63.7646 34.9095 55.7437 37.1565C51.0371 38.4746 46.6505 41.0003 43.2637 44.5389C41.4209 46.4641 40.0715 48.1815 38.7764 50.5703" fill="url(#paint1_linear_1_1125)"/>
</g>
</g>
<defs>
<linearGradient id="paint0_linear_1_1125" x1="0" y1="63.0008" x2="126" y2="63.0008" gradientUnits="userSpaceOnUse">
<stop stop-color="#A9A9A9"/>
<stop offset="0.07" stop-color="#B3B3B3"/>
<stop offset="0.32" stop-color="#D3D3D3"/>
<stop offset="0.57" stop-color="#E9E9E9"/>
<stop offset="0.8" stop-color="#F7F7F7"/>
<stop offset="1" stop-color="#FCFCFC"/>
</linearGradient>
<linearGradient id="paint1_linear_1_1125" x1="94.8848" y1="109.584" x2="46.5697" y2="25.9005" gradientUnits="userSpaceOnUse">
<stop offset="0.08" stop-color="white"/>
<stop offset="0.25" stop-color="#FBFBFB"/>
<stop offset="0.38" stop-color="#F1F1F1"/>
<stop offset="0.51" stop-color="#DFDFDF"/>
<stop offset="0.64" stop-color="#C7C7C7"/>
<stop offset="0.75" stop-color="#A9A9A9"/>
<stop offset="1" stop-color="#A9A9A9"/>
</linearGradient>
<clipPath id="clip0_1_1125">
<rect width="126" height="126" fill="white"/>
</clipPath>
</defs>
</svg>
