<svg width="19" height="20" viewBox="0 0 19 20" fill="none" xmlns="http://www.w3.org/2000/svg">
<path d="M15.75 20C14.9167 20 14.2083 19.7083 13.625 19.125C13.0417 18.5417 12.75 17.8333 12.75 17C12.75 16.9 12.775 16.6667 12.825 16.3L5.8 12.2C5.53333 12.45 5.225 12.6458 4.875 12.7875C4.525 12.9292 4.15 13 3.75 13C2.91667 13 2.20833 12.7083 1.625 12.125C1.04167 11.5417 0.75 10.8333 0.75 10C0.75 9.16667 1.04167 8.45833 1.625 7.875C2.20833 7.29167 2.91667 7 3.75 7C4.15 7 4.525 7.07083 4.875 7.2125C5.225 7.35417 5.53333 7.55 5.8 7.8L12.825 3.7C12.7917 3.58333 12.7708 3.47083 12.7625 3.3625C12.7542 3.25417 12.75 3.13333 12.75 3C12.75 2.16667 13.0417 1.45833 13.625 0.875C14.2083 0.291667 14.9167 0 15.75 0C16.5833 0 17.2917 0.291667 17.875 0.875C18.4583 1.45833 18.75 2.16667 18.75 3C18.75 3.83333 18.4583 4.54167 17.875 5.125C17.2917 5.70833 16.5833 6 15.75 6C15.35 6 14.975 5.92917 14.625 5.7875C14.275 5.64583 13.9667 5.45 13.7 5.2L6.675 9.3C6.70833 9.41667 6.72917 9.52917 6.7375 9.6375C6.74583 9.74583 6.75 9.86667 6.75 10C6.75 10.1333 6.74583 10.2542 6.7375 10.3625C6.72917 10.4708 6.70833 10.5833 6.675 10.7L13.7 14.8C13.9667 14.55 14.275 14.3542 14.625 14.2125C14.975 14.0708 15.35 14 15.75 14C16.5833 14 17.2917 14.2917 17.875 14.875C18.4583 15.4583 18.75 16.1667 18.75 17C18.75 17.8333 18.4583 18.5417 17.875 19.125C17.2917 19.7083 16.5833 20 15.75 20ZM15.75 18C16.0333 18 16.2708 17.9042 16.4625 17.7125C16.6542 17.5208 16.75 17.2833 16.75 17C16.75 16.7167 16.6542 16.4792 16.4625 16.2875C16.2708 16.0958 16.0333 16 15.75 16C15.4667 16 15.2292 16.0958 15.0375 16.2875C14.8458 16.4792 14.75 16.7167 14.75 17C14.75 17.2833 14.8458 17.5208 15.0375 17.7125C15.2292 17.9042 15.4667 18 15.75 18ZM3.75 11C4.03333 11 4.27083 10.9042 4.4625 10.7125C4.65417 10.5208 4.75 10.2833 4.75 10C4.75 9.71667 4.65417 9.47917 4.4625 9.2875C4.27083 9.09583 4.03333 9 3.75 9C3.46667 9 3.22917 9.09583 3.0375 9.2875C2.84583 9.47917 2.75 9.71667 2.75 10C2.75 10.2833 2.84583 10.5208 3.0375 10.7125C3.22917 10.9042 3.46667 11 3.75 11ZM15.75 4C16.0333 4 16.2708 3.90417 16.4625 3.7125C16.6542 3.52083 16.75 3.28333 16.75 3C16.75 2.71667 16.6542 2.47917 16.4625 2.2875C16.2708 2.09583 16.0333 2 15.75 2C15.4667 2 15.2292 2.09583 15.0375 2.2875C14.8458 2.47917 14.75 2.71667 14.75 3C14.75 3.28333 14.8458 3.52083 15.0375 3.7125C15.2292 3.90417 15.4667 4 15.75 4Z" fill="white"/>
</svg>
