<svg width="24" height="25" viewBox="0 0 24 25" fill="none" xmlns="http://www.w3.org/2000/svg">
<path d="M10.6 14.5917L8.45 12.4417C8.26667 12.2584 8.03333 12.1667 7.75 12.1667C7.46667 12.1667 7.23333 12.2584 7.05 12.4417C6.86667 12.6251 6.775 12.8584 6.775 13.1417C6.775 13.4251 6.86667 13.6584 7.05 13.8417L9.9 16.6917C10.1 16.8917 10.3333 16.9917 10.6 16.9917C10.8667 16.9917 11.1 16.8917 11.3 16.6917L16.95 11.0417C17.1333 10.8584 17.225 10.6251 17.225 10.3417C17.225 10.0584 17.1333 9.82508 16.95 9.64175C16.7667 9.45842 16.5333 9.36675 16.25 9.36675C15.9667 9.36675 15.7333 9.45842 15.55 9.64175L10.6 14.5917ZM12 22.7917C10.6167 22.7917 9.31667 22.5292 8.1 22.0042C6.88333 21.4792 5.825 20.7667 4.925 19.8667C4.025 18.9667 3.3125 17.9084 2.7875 16.6917C2.2625 15.4751 2 14.1751 2 12.7917C2 11.4084 2.2625 10.1084 2.7875 8.89175C3.3125 7.67508 4.025 6.61675 4.925 5.71675C5.825 4.81675 6.88333 4.10425 8.1 3.57925C9.31667 3.05425 10.6167 2.79175 12 2.79175C13.3833 2.79175 14.6833 3.05425 15.9 3.57925C17.1167 4.10425 18.175 4.81675 19.075 5.71675C19.975 6.61675 20.6875 7.67508 21.2125 8.89175C21.7375 10.1084 22 11.4084 22 12.7917C22 14.1751 21.7375 15.4751 21.2125 16.6917C20.6875 17.9084 19.975 18.9667 19.075 19.8667C18.175 20.7667 17.1167 21.4792 15.9 22.0042C14.6833 22.5292 13.3833 22.7917 12 22.7917ZM12 20.7917C14.2333 20.7917 16.125 20.0167 17.675 18.4667C19.225 16.9167 20 15.0251 20 12.7917C20 10.5584 19.225 8.66675 17.675 7.11675C16.125 5.56675 14.2333 4.79175 12 4.79175C9.76667 4.79175 7.875 5.56675 6.325 7.11675C4.775 8.66675 4 10.5584 4 12.7917C4 15.0251 4.775 16.9167 6.325 18.4667C7.875 20.0167 9.76667 20.7917 12 20.7917Z" fill="#252525" fill-opacity="0.5"/>
</svg>
