<svg width="24" height="24" viewBox="0 0 24 24" fill="none" xmlns="http://www.w3.org/2000/svg">
<path d="M20.4501 10.1135C19.7733 9.03806 18.9196 8.07745 17.9228 7.26977L20.022 5.23285C20.1586 5.09565 20.2342 4.91189 20.2325 4.72115C20.2307 4.53041 20.1519 4.34795 20.0129 4.21307C19.8739 4.07819 19.6859 4.00168 19.4893 4.00003C19.2927 3.99837 19.1033 4.0717 18.9619 4.20421L16.679 6.42227C15.2638 5.60664 13.646 5.18154 12 5.19284C7.35847 5.19284 4.71345 8.27587 3.54988 10.1135C3.19041 10.6776 3 11.3278 3 11.9911C3 12.6543 3.19041 13.3045 3.54988 13.8687C4.2267 14.9441 5.08043 15.9047 6.07719 16.7123L3.97797 18.7493C3.90637 18.8164 3.84925 18.8966 3.80996 18.9854C3.77067 19.0742 3.74998 19.1696 3.74912 19.2662C3.74825 19.3628 3.76722 19.4586 3.80492 19.548C3.84262 19.6374 3.89829 19.7186 3.96868 19.7869C4.03907 19.8552 4.12278 19.9093 4.21492 19.9458C4.30706 19.9824 4.40578 20.0008 4.50533 20C4.60488 19.9991 4.70325 19.9791 4.79472 19.9409C4.88619 19.9028 4.96892 19.8474 5.03808 19.7779L7.32623 17.5577C8.73966 18.3732 10.3556 18.799 12 18.7893C16.6415 18.7893 19.2866 15.7063 20.4501 13.8687C20.8096 13.3045 21 12.6543 21 11.9911C21 11.3278 20.8096 10.6776 20.4501 10.1135ZM4.82741 13.107C4.61384 12.7717 4.50072 12.3853 4.50072 11.9911C4.50072 11.5969 4.61384 11.2105 4.82741 10.8751C5.82754 9.29942 8.08795 6.64779 12 6.64779C13.2447 6.64102 14.472 6.93211 15.5732 7.49529L14.064 8.95969C13.3442 8.496 12.4813 8.28823 11.6216 8.37163C10.7619 8.45504 9.95841 8.82448 9.34748 9.41727C8.73656 10.0101 8.35582 10.7897 8.26987 11.6239C8.18391 12.458 8.39804 13.2954 8.87591 13.9938L7.14405 15.6742C6.22572 14.9538 5.44206 14.0854 4.82741 13.107ZM14.2492 11.9911C14.2492 12.5699 14.0122 13.125 13.5904 13.5343C13.1686 13.9435 12.5965 14.1735 12 14.1735C11.666 14.1722 11.3366 14.0976 11.0366 13.9552L14.0243 11.0563C14.171 11.3474 14.2479 11.667 14.2492 11.9911ZM9.75083 11.9911C9.75083 11.4122 9.9878 10.8571 10.4096 10.4479C10.8314 10.0386 11.4035 9.80865 12 9.80865C12.334 9.8099 12.6634 9.88451 12.9634 10.0269L9.97575 12.9259C9.82902 12.6347 9.75213 12.3151 9.75083 11.9911ZM19.1726 13.107C18.1725 14.6827 15.9121 17.3343 12 17.3343C10.7553 17.3411 9.52799 17.05 8.42682 16.4868L9.93601 15.0224C10.6558 15.4861 11.5187 15.6939 12.3784 15.6105C13.2381 15.5271 14.0416 15.1576 14.6525 14.5649C15.2634 13.9721 15.6442 13.1924 15.7301 12.3583C15.8161 11.5241 15.602 10.6868 15.1241 9.98833L16.856 8.30787C17.7743 9.02828 18.5579 9.89671 19.1726 10.8751C19.3862 11.2105 19.4993 11.5969 19.4993 11.9911C19.4993 12.3853 19.3862 12.7717 19.1726 13.107Z" fill="white"/>
</svg>
