<svg width="24" height="25" viewBox="0 0 24 25" fill="none" xmlns="http://www.w3.org/2000/svg">
<path d="M21.389 10.6315C20.637 9.40004 19.6884 8.30006 18.5809 7.37519L20.9134 5.04272C21.0651 4.88561 21.1491 4.67518 21.1472 4.45677C21.1453 4.23835 21.0577 4.02942 20.9032 3.87497C20.7488 3.72052 20.5398 3.63291 20.3214 3.63101C20.103 3.62911 19.8926 3.71308 19.7355 3.86482L17.1989 6.40471C15.6265 5.47074 13.8288 4.98396 12 4.9969C6.84274 4.9969 3.90383 8.52726 2.61098 10.6315C2.21157 11.2775 2 12.022 2 12.7815C2 13.541 2.21157 14.2855 2.61098 14.9316C3.363 16.163 4.31159 17.263 5.4191 18.1878L3.08664 20.5203C3.00707 20.5972 2.94361 20.6891 2.89995 20.7907C2.8563 20.8923 2.83332 21.0017 2.83235 21.1123C2.83139 21.2229 2.85247 21.3326 2.89436 21.4349C2.93624 21.5373 2.9981 21.6303 3.07631 21.7085C3.15453 21.7868 3.24753 21.8486 3.34991 21.8905C3.45229 21.9324 3.56198 21.9535 3.67259 21.9525C3.78319 21.9515 3.8925 21.9286 3.99414 21.8849C4.09577 21.8412 4.18769 21.7778 4.26453 21.6982L6.80692 19.1558C8.3774 20.0896 10.1729 20.5773 12 20.5661C17.1573 20.5661 20.0962 17.0358 21.389 14.9316C21.7884 14.2855 22 13.541 22 12.7815C22 12.022 21.7884 11.2775 21.389 10.6315ZM4.03045 14.0594C3.79315 13.6754 3.66746 13.2329 3.66746 12.7815C3.66746 12.3301 3.79315 11.8876 4.03045 11.5037C5.14171 9.69933 7.65328 6.66295 12 6.66295C13.383 6.6552 14.7467 6.98853 15.9702 7.63343L14.2933 9.3103C13.4936 8.77934 12.5347 8.54142 11.5795 8.63692C10.6243 8.73243 9.73156 9.15548 9.05276 9.83428C8.37396 10.5131 7.95091 11.4058 7.85541 12.361C7.7599 13.3162 7.99782 14.2751 8.52879 15.0748L6.6045 16.9991C5.58413 16.1742 4.7134 15.1798 4.03045 14.0594ZM14.4991 12.7815C14.4991 13.4443 14.2358 14.08 13.7671 14.5486C13.2984 15.0173 12.6628 15.2806 12 15.2806C11.6289 15.2792 11.2629 15.1937 10.9296 15.0307L14.2492 11.7111C14.4122 12.0445 14.4976 12.4104 14.4991 12.7815ZM9.50093 12.7815C9.50093 12.1187 9.76422 11.4831 10.2329 11.0144C10.7016 10.5457 11.3372 10.2824 12 10.2824C12.3711 10.2839 12.7371 10.3693 13.0704 10.5324L9.75083 13.852C9.5878 13.5186 9.50236 13.1526 9.50093 12.7815ZM19.9695 14.0594C18.8583 15.8637 16.3467 18.9001 12 18.9001C10.617 18.9078 9.25332 18.5745 8.0298 17.9296L9.70668 16.2527C10.5064 16.7837 11.4653 17.0216 12.4205 16.9261C13.3757 16.8306 14.2684 16.4076 14.9472 15.7288C15.626 15.05 16.0491 14.1572 16.1446 13.202C16.2401 12.2468 16.0022 11.288 15.4712 10.4882L17.3955 8.56391C18.4159 9.38884 19.2866 10.3833 19.9695 11.5037C20.2068 11.8876 20.3325 12.3301 20.3325 12.7815C20.3325 13.2329 20.2068 13.6754 19.9695 14.0594Z" fill="#252525" fill-opacity="0.5"/>
</svg>
