<svg width="24" height="24" viewBox="0 0 24 24" fill="none" xmlns="http://www.w3.org/2000/svg">
<path d="M22.5303 2.53027L19.3955 5.66406C22.2037 7.75664 24 10.5499 24 12C24 14.5 17.7807 21 12 21C9.9642 21 7.87528 20.1918 6.02148 19.0381L2.53027 22.5303C2.23738 22.8232 1.76262 22.8232 1.46973 22.5303C1.17683 22.2374 1.17683 21.7626 1.46973 21.4697L4.76074 18.1777C1.98818 16.1047 0 13.4134 0 12C0 9.5 5.33314 3 12 3C14.2447 3.00001 16.3373 3.73854 18.127 4.81152L21.4697 1.46973L22.5303 2.53027ZM15.8457 9.21387C16.4138 9.99667 16.75 10.9588 16.75 12C16.75 14.6233 14.6233 16.75 12 16.75C10.9588 16.75 9.99668 16.4138 9.21387 15.8457L7.11328 17.9463C8.71297 18.8916 10.4187 19.5 12 19.5C14.3784 19.5 17.0407 18.1279 19.1953 16.2949C20.2508 15.397 21.1196 14.4431 21.71 13.6006C22.3531 12.6828 22.5 12.1343 22.5 12C22.5 11.8057 22.3521 11.2273 21.793 10.3379C21.2695 9.50535 20.4877 8.56393 19.5 7.68066C19.1302 7.34995 18.7369 7.03316 18.3242 6.73535L15.8457 9.21387ZM12 4.5C9.15192 4.5 6.4929 5.89857 4.5 7.68066C3.51227 8.56393 2.73046 9.50535 2.20703 10.3379C1.64792 11.2273 1.5 11.8057 1.5 12C1.5 12.1343 1.6469 12.6828 2.29004 13.6006C2.88045 14.4431 3.74919 15.397 4.80469 16.2949C5.13651 16.5772 5.48195 16.8464 5.83496 17.1035L8.15332 14.7852C7.58569 14.0025 7.25 13.0407 7.25 12C7.25 9.37665 9.37665 7.25 12 7.25C13.0407 7.25001 14.0025 7.58569 14.7852 8.15332L17.0303 5.9082C15.5072 5.05426 13.7913 4.50001 12 4.5ZM10.2939 14.7656C10.7899 15.0722 11.3741 15.25 12 15.25C13.7949 15.25 15.25 13.7949 15.25 12C15.25 11.3741 15.0722 10.7899 14.7656 10.2939L10.2939 14.7656ZM12 8.75C10.2051 8.75 8.75 10.2051 8.75 12C8.75 12.6255 8.92722 13.2093 9.2334 13.7051L13.7051 9.2334C13.2093 8.92722 12.6255 8.75001 12 8.75Z" fill="white" fill-opacity="0.5"/>
</svg>
