<svg width="18" height="17" viewBox="0 0 18 17" fill="none" xmlns="http://www.w3.org/2000/svg">
<path d="M17.0139 6.18988C16.354 5.10103 15.5216 4.12842 14.5497 3.31065L16.5965 1.24826C16.7296 1.10935 16.8033 0.923289 16.8016 0.730164C16.8 0.537039 16.7231 0.3523 16.5876 0.215735C16.452 0.0791698 16.2687 0.00170605 16.077 2.78441e-05C15.8854 -0.00165036 15.7007 0.0725912 15.5629 0.206762L13.337 2.45255C11.9572 1.62673 10.3798 1.19631 8.775 1.20775C4.24951 1.20775 1.67061 4.32931 0.536134 6.18988C0.18565 6.76109 0 7.41938 0 8.09095C0 8.76252 0.18565 9.42081 0.536134 9.99202C1.19603 11.0809 2.02842 12.0535 3.00026 12.8713L0.953523 14.9336C0.883707 15.0016 0.828019 15.0829 0.789709 15.1727C0.751399 15.2626 0.731234 15.3592 0.730391 15.457C0.729548 15.5548 0.748043 15.6518 0.784797 15.7423C0.821551 15.8329 0.875829 15.9151 0.944462 15.9843C1.0131 16.0534 1.09471 16.1081 1.18455 16.1452C1.27438 16.1822 1.37064 16.2008 1.46769 16.2C1.56475 16.1991 1.66067 16.1788 1.74985 16.1402C1.83904 16.1016 1.9197 16.0455 1.98713 15.9751L4.21807 13.7271C5.59617 14.5528 7.17172 14.984 8.775 14.9741C13.3005 14.9741 15.8794 11.8526 17.0139 9.99202C17.3643 9.42081 17.55 8.76252 17.55 8.09095C17.55 7.41938 17.3643 6.76109 17.0139 6.18988ZM1.78172 9.22084C1.57349 8.88132 1.4632 8.49007 1.4632 8.09095C1.4632 7.69182 1.57349 7.30058 1.78172 6.96106C2.75685 5.36566 4.96075 2.68088 8.775 2.68088C9.98862 2.67403 11.1852 2.96876 12.2588 3.53898L10.7874 5.02169C10.0856 4.5522 9.24422 4.34183 8.40602 4.42628C7.56783 4.51073 6.78444 4.88479 6.1888 5.48499C5.59315 6.08519 5.22193 6.87456 5.13812 7.71915C5.05431 8.56375 5.26308 9.41156 5.72901 10.1187L4.04045 11.8202C3.14507 11.0908 2.38101 10.2115 1.78172 9.22084ZM10.9679 8.09095C10.9679 8.677 10.7369 9.23904 10.3256 9.65344C9.91438 10.0678 9.3566 10.3006 8.775 10.3006C8.44936 10.2994 8.12823 10.2238 7.83569 10.0797L10.7486 7.14446C10.8917 7.43923 10.9667 7.76282 10.9679 8.09095ZM6.58206 8.09095C6.58206 7.5049 6.8131 6.94286 7.22436 6.52846C7.63561 6.11406 8.1934 5.88126 8.775 5.88126C9.10064 5.88253 9.42177 5.95807 9.71431 6.10222L6.80136 9.03743C6.65829 8.74266 6.58332 8.41908 6.58206 8.09095ZM15.7683 9.22084C14.7931 10.8162 12.5892 13.501 8.775 13.501C7.56137 13.5079 6.36479 13.2131 5.29115 12.6429L6.76261 11.1602C7.4644 11.6297 8.30578 11.8401 9.14397 11.7556C9.98217 11.6712 10.7656 11.2971 11.3612 10.6969C11.9569 10.0967 12.3281 9.30734 12.4119 8.46274C12.4957 7.61814 12.2869 6.77034 11.821 6.06319L13.5095 4.36172C14.4049 5.09113 15.169 5.97042 15.7683 6.96106C15.9765 7.30058 16.0868 7.69182 16.0868 8.09095C16.0868 8.49007 15.9765 8.88132 15.7683 9.22084Z" fill="white"/>
</svg>
