<svg width="22" height="18" viewBox="0 0 22 18" fill="none" xmlns="http://www.w3.org/2000/svg">
<path d="M6.304 1.22223C8.348 1.22223 9.55744 1.93556 10.4444 3.44445L11 5.11112L8.77778 7.8889L11 12.9356L11.5556 8.44445L13.7778 5.11112L12.6667 2.0738C13.5242 1.53749 14.5676 1.22223 15.696 1.22223C18.626 1.22223 21 3.33778 21 5.95889C21 8.58001 19.46 10.8045 16.835 12.9356C14.374 14.9345 11 16.7778 11 16.7778C11 16.7778 7.513 14.9033 5.165 12.9356C2.817 10.9678 1 8.57223 1 5.95889C1 3.34556 3.374 1.22223 6.304 1.22223Z" stroke="white" stroke-width="1.5" stroke-linecap="round" stroke-linejoin="round"/>
</svg>
