<svg width="20" height="20" viewBox="0 0 20 20" fill="none" xmlns="http://www.w3.org/2000/svg">
<path d="M20 8.10704V15.837C19.9987 16.9417 19.5593 18.0007 18.7782 18.7819C17.997 19.563 16.938 20.0024 15.8333 20.0037H15C14.779 20.0037 14.567 19.9159 14.4107 19.7596C14.2545 19.6034 14.1667 19.3914 14.1667 19.1704C14.1667 18.9494 14.2545 18.7374 14.4107 18.5811C14.567 18.4248 14.779 18.337 15 18.337H15.8333C16.4964 18.337 17.1323 18.0737 17.6011 17.6048C18.0699 17.136 18.3333 16.5001 18.3333 15.837V8.10704C18.3334 7.69781 18.2329 7.29483 18.0408 6.93347C17.8488 6.57212 17.5709 6.26344 17.2317 6.03454L11.3983 2.09871C10.9861 1.81772 10.4989 1.66742 10 1.66742C9.50115 1.66742 9.01386 1.81772 8.60167 2.09871L2.76834 6.03454C2.4291 6.26344 2.15125 6.57212 1.95917 6.93347C1.76709 7.29483 1.66665 7.69781 1.66667 8.10704V15.837C1.66667 16.5001 1.93006 17.136 2.3989 17.6048C2.86774 18.0737 3.50363 18.337 4.16667 18.337H5C5.22102 18.337 5.43298 18.4248 5.58926 18.5811C5.74554 18.7374 5.83334 18.9494 5.83334 19.1704C5.83334 19.3914 5.74554 19.6034 5.58926 19.7596C5.43298 19.9159 5.22102 20.0037 5 20.0037H4.16667C3.06201 20.0024 2.00297 19.563 1.22185 18.7819C0.440738 18.0007 0.00132648 16.9417 3.26423e-06 15.837V8.10704C-0.000850798 7.42514 0.165902 6.75348 0.48559 6.15116C0.805278 5.54884 1.2681 5.03432 1.83334 4.65288L7.66667 0.716211C8.35439 0.249505 9.16638 0 9.9975 0C10.8286 0 11.6406 0.249505 12.3283 0.716211L18.1617 4.65288C18.7275 5.03412 19.191 5.54847 19.5115 6.15074C19.8321 6.75302 19.9998 7.42479 20 8.10704ZM15.8333 12.5095C15.8355 13.2758 15.6856 14.0349 15.3923 14.7428C15.0991 15.4507 14.6683 16.0934 14.125 16.6337L11.1958 19.4987C10.8752 19.8092 10.4463 19.9828 10 19.9828C9.55367 19.9828 9.12483 19.8092 8.80417 19.4987L5.88167 16.6404C5.202 15.9628 4.69999 15.1281 4.42016 14.2101C4.14032 13.2921 4.0913 12.3192 4.27744 11.3777C4.46358 10.4363 4.87914 9.55524 5.48726 8.81281C6.09538 8.07037 6.87728 7.48944 7.76366 7.12151C8.65003 6.75359 9.61349 6.61004 10.5686 6.70359C11.5237 6.79714 12.441 7.12489 13.2392 7.6578C14.0373 8.19071 14.6917 8.91231 15.1442 9.75863C15.5967 10.605 15.8334 11.5498 15.8333 12.5095ZM14.1667 12.5095C14.1667 11.8244 13.9977 11.1497 13.6747 10.5454C13.3518 9.94114 12.8847 9.42583 12.315 9.04513C11.7453 8.66443 11.0905 8.43011 10.4086 8.36291C9.72676 8.29571 9.03882 8.39771 8.40577 8.65987C7.77272 8.92204 7.21409 9.33628 6.77936 9.8659C6.34463 10.3955 6.04722 11.0242 5.91348 11.6962C5.77974 12.3682 5.81379 13.0628 6.01261 13.7185C6.21143 14.3743 6.5689 14.9708 7.05334 15.4554L9.97 18.307L12.9533 15.4487C13.3397 15.0632 13.6458 14.605 13.8541 14.1005C14.0623 13.5961 14.1686 13.0553 14.1667 12.5095ZM12.5 12.5037C12.5 12.9982 12.3534 13.4815 12.0787 13.8926C11.804 14.3038 11.4135 14.6242 10.9567 14.8134C10.4999 15.0026 9.99723 15.0521 9.51228 14.9557C9.02733 14.8592 8.58187 14.6211 8.23224 14.2715C7.88261 13.9218 7.6445 13.4764 7.54804 12.9914C7.45158 12.5065 7.50109 12.0038 7.6903 11.547C7.87952 11.0902 8.19995 10.6997 8.61108 10.425C9.0222 10.1503 9.50555 10.0037 10 10.0037C10.663 10.0037 11.2989 10.2671 11.7678 10.7359C12.2366 11.2048 12.5 11.8407 12.5 12.5037Z" fill="white"/>
</svg>
