<svg width="22" height="22" viewBox="0 0 22 22" fill="none" xmlns="http://www.w3.org/2000/svg">
<g clip-path="url(#clip0_8203_40899)">
<path d="M14.25 11.8749C14.5932 12.3371 15.0254 12.7259 15.5205 13.0195C16.0156 13.3129 16.5638 13.5056 17.1338 13.5849C17.7039 13.6642 18.2844 13.6296 18.8408 13.4824C19.3972 13.3351 19.9187 13.0783 20.375 12.7275V17.1249C20.3736 18.2848 19.9119 19.3966 19.0918 20.2167C18.2716 21.0369 17.1599 21.4985 16 21.4999H5.5C4.3401 21.4985 3.22837 21.0369 2.4082 20.2167C1.58805 19.3966 1.12639 18.2848 1.125 17.1249V12.7294C1.58145 13.0802 2.1036 13.3373 2.66016 13.4843C3.21643 13.6312 3.79639 13.6653 4.36621 13.5859C4.93633 13.5063 5.48543 13.3142 5.98047 13.0204C6.47547 12.7267 6.90704 12.3372 7.25 11.8749C7.65743 12.4182 8.18565 12.8593 8.79297 13.163C9.40046 13.4668 10.0708 13.6249 10.75 13.6249C11.4292 13.6249 12.0995 13.4668 12.707 13.163C13.3144 12.8593 13.8426 12.4182 14.25 11.8749Z" fill="#0069FF"/>
<path d="M6.375 0.499937V3.12494C6.375 3.35697 6.4668 3.57999 6.63086 3.74408C6.79495 3.90817 7.01794 3.99994 7.25 3.99994C7.48206 3.99994 7.70505 3.90817 7.86914 3.74408C8.0332 3.57999 8.125 3.35697 8.125 3.12494V0.499937H13.375V3.12494C13.375 3.35697 13.4668 3.57999 13.6309 3.74408C13.795 3.90817 14.0179 3.99994 14.25 3.99994C14.4821 3.99994 14.705 3.90817 14.8691 3.74408C15.0332 3.57999 15.125 3.35697 15.125 3.12494V0.499937H15.8184C16.6159 0.49528 17.3912 0.764899 18.0137 1.26361C18.636 1.76228 19.0679 2.45991 19.2373 3.2392L20.375 8.46869V9.24994C20.375 9.9461 20.0987 10.6141 19.6064 11.1064C19.1142 11.5987 18.4462 11.8749 17.75 11.8749C17.0538 11.8749 16.3858 11.5987 15.8936 11.1064C15.4013 10.6141 15.125 9.9461 15.125 9.24994C15.125 9.01812 15.0329 8.7958 14.8691 8.63177C14.705 8.46768 14.4821 8.37494 14.25 8.37494C14.0179 8.37494 13.795 8.46768 13.6309 8.63177C13.4671 8.7958 13.375 9.01812 13.375 9.24994C13.375 9.9461 13.0987 10.6141 12.6064 11.1064C12.1142 11.5987 11.4462 11.8749 10.75 11.8749C10.0538 11.8749 9.38584 11.5987 8.89355 11.1064C8.40131 10.6141 8.125 9.9461 8.125 9.24994C8.12497 9.01812 8.03294 8.7958 7.86914 8.63177C7.70505 8.46768 7.48206 8.37494 7.25 8.37494C7.01794 8.37494 6.79495 8.46768 6.63086 8.63177C6.48742 8.77541 6.39869 8.96372 6.37891 9.164L6.36328 9.50775C6.33887 9.76402 6.27674 10.0158 6.17871 10.2548C6.04789 10.5737 5.85515 10.8638 5.6123 11.1083C5.36938 11.3529 5.08071 11.5476 4.7627 11.6806C4.44467 11.8136 4.1035 11.8826 3.75879 11.8837C3.06265 11.886 2.3943 11.6116 1.90039 11.121C1.65582 10.8781 1.46111 10.5895 1.32812 10.2714C1.19515 9.95339 1.12615 9.61223 1.125 9.26752L1.14453 8.28802L2.2627 3.24017C2.43195 2.46063 2.86386 1.76248 3.48633 1.26361C4.10878 0.764823 4.88401 0.495324 5.68164 0.499937H6.375Z" fill="#0069FF"/>
</g>
<defs>
<clipPath id="clip0_8203_40899">
<rect width="21" height="21" fill="white" transform="translate(0.25 0.5)"/>
</clipPath>
</defs>
</svg>
