<svg width="13" height="11" viewBox="0 0 13 11" fill="none" xmlns="http://www.w3.org/2000/svg">
<g id="dislike">
<path id="Vector" d="M3.4476 0.5C4.7762 0.5 5.56234 0.958571 6.13889 1.92857L6.5 3L5.05556 4.78571L6.5 8.03L6.86111 5.14286L8.30556 3L7.58333 1.04744C8.14075 0.702668 8.81894 0.5 9.5524 0.5C11.4569 0.5 13 1.86 13 3.545C13 5.23 11.999 6.66 10.2927 8.03C8.6931 9.315 6.5 10.5 6.5 10.5C6.5 10.5 4.23345 9.295 2.70725 8.03C1.18105 6.765 0 5.225 0 3.545C0 1.865 1.5431 0.5 3.4476 0.5Z" fill="white"/>
</g>
</svg>
