<svg width="23" height="19" viewBox="0 0 23 19" fill="none" xmlns="http://www.w3.org/2000/svg">
<g id="Group 59">
<g id="Group 58">
<path id="Rectangle 66" d="M1 8.51852C1 5.7571 3.23858 3.51852 6 3.51852H7.55564C7.82167 3.51852 8.05853 3.35006 8.14583 3.09877V3.09877C8.58237 1.84227 9.76666 1 11.0968 1H11.9032C13.2333 1 14.4176 1.84227 14.8542 3.09877V3.09877C14.9415 3.35006 15.1783 3.51852 15.4444 3.51852H17C19.7614 3.51852 22 5.7571 22 8.51852V13C22 15.7614 19.7614 18 17 18H6C3.23858 18 1 15.7614 1 13V8.51852Z" stroke="white" stroke-width="2"/>
<rect id="Rectangle 67" x="8" y="7" width="7" height="7" rx="3.5" stroke="white" stroke-width="2"/>
</g>
</g>
</svg>
