<svg width="21" height="23" viewBox="0 0 21 23" fill="none" xmlns="http://www.w3.org/2000/svg">
<path d="M10.0322 0C11.2865 1.19197e-07 12.4753 0.540924 13.3408 1.47949C14.0984 2.30112 14.558 3.37021 14.6592 4.49707H17.4053C18.1494 4.49741 18.7955 5.01835 18.9434 5.74414L18.9658 5.89258L20.0459 16.0928H20.0449C20.1803 17.2401 19.6699 19.2929 17.499 20.9219C16.3113 21.813 14.8367 22.0283 13.5332 22.0283H6.53418C5.23067 22.0283 3.75521 21.813 2.56738 20.9219C0.387462 19.2861 -0.118882 17.2227 0.0224609 16.0781H0.0234375L1.10156 5.89258L1.12402 5.74414C1.27199 5.01816 1.91772 4.49707 2.66211 4.49707H5.40723C5.50844 3.37023 5.96708 2.30111 6.72461 1.47949C7.59001 0.541066 8.77816 0.000123798 10.0322 0ZM1.6123 16.2607L1.61035 16.2744C1.54339 16.817 1.77942 18.3293 3.52832 19.6416C4.30781 20.2263 5.36572 20.4277 6.53418 20.4277H13.5332C14.7017 20.4277 15.7596 20.2264 16.5391 19.6416C18.2875 18.3295 18.523 16.817 18.4561 16.2744L18.4551 16.2607L17.3789 6.09668H2.68848L1.6123 16.2607ZM13.7754 8.24023C14.217 8.2405 14.5752 8.59837 14.5752 9.04004C14.5752 10.3377 14.1008 11.5941 13.2393 12.5303C12.3757 13.4685 11.1898 14.0097 9.9375 14.0098C8.68512 14.0097 7.49835 13.4686 6.63477 12.5303C5.77334 11.5941 5.29982 10.3376 5.2998 9.04004C5.2998 8.59826 5.65785 8.24031 6.09961 8.24023C6.54144 8.24023 6.89941 8.59821 6.89941 9.04004C6.89943 9.95421 7.23472 10.8194 7.8125 11.4473C8.38821 12.0727 9.1545 12.4101 9.9375 12.4102C10.7205 12.4101 11.4868 12.0727 12.0625 11.4473C12.6403 10.8194 12.9746 9.95424 12.9746 9.04004C12.9746 8.59826 13.3336 8.24031 13.7754 8.24023ZM10.0322 1.59961C9.24623 1.59973 8.47765 1.93839 7.90039 2.56445C7.42279 3.08255 7.11143 3.76212 7.0166 4.49707H13.0488C12.9542 3.76214 12.6426 3.08254 12.165 2.56445C11.5877 1.93837 10.8183 1.59961 10.0322 1.59961Z" fill="white"/>
</svg>
