<svg width="17" height="17" viewBox="0 0 17 17" fill="none" xmlns="http://www.w3.org/2000/svg">
<rect x="0.569336" y="3.77148" width="12.2949" height="12.2944" rx="2" stroke="white"/>
<path fill-rule="evenodd" clip-rule="evenodd" d="M16.1212 11.4032C16.1212 11.7378 16.4305 11.7902 16.4305 11.4556V3.43408C16.4305 2.05337 15.3112 0.934082 13.9305 0.934082H5.90901C5.5735 0.934082 5.62608 1.24422 5.96159 1.24422H14.1212C15.2257 1.24422 16.1212 2.13965 16.1212 3.24422V11.4032Z" fill="white" fill-opacity="0.5"/>
<path d="M16.4305 3.43408H15.9305V11.4556H16.4305H16.9305V3.43408H16.4305ZM13.9305 0.934082V1.43408C15.0351 1.43408 15.9305 2.32951 15.9305 3.43408H16.4305H16.9305C16.9305 1.77723 15.5873 0.434082 13.9305 0.434082V0.934082ZM5.90901 0.934082V1.43408H13.9305V0.934082V0.434082H5.90901V0.934082ZM5.96159 1.24422V1.74422H14.1212V1.24422V0.744218H5.96159V1.24422ZM14.1212 1.24422V1.74422C14.9496 1.74422 15.6212 2.41579 15.6212 3.24422H16.1212H16.6212C16.6212 1.86351 15.5019 0.744218 14.1212 0.744218V1.24422ZM16.1212 3.24422H15.6212V11.4032H16.1212H16.6212V3.24422H16.1212ZM5.90901 0.934082V0.434082C5.75711 0.434082 5.57399 0.468083 5.41961 0.589364C5.24994 0.722664 5.15115 0.939449 5.1907 1.17272C5.26402 1.60518 5.68806 1.74422 5.96159 1.74422V1.24422V0.744218C5.95254 0.744218 5.98171 0.742017 6.02823 0.770878C6.07078 0.797275 6.15351 0.869206 6.17663 1.00558C6.20304 1.16132 6.13305 1.30057 6.03739 1.37572C5.95703 1.43885 5.89316 1.43408 5.90901 1.43408V0.934082ZM16.4305 11.4556L15.9305 11.4555C15.9305 11.4712 15.9258 11.4072 15.9889 11.3268C16.0641 11.2311 16.2034 11.161 16.3593 11.1874C16.4958 11.2105 16.5679 11.2933 16.5944 11.336C16.6233 11.3827 16.6212 11.412 16.6212 11.4032H16.1212H15.6212C15.6212 11.6762 15.76 12.1001 16.1924 12.1734C16.4256 12.2128 16.6422 12.114 16.7753 11.9445C16.8965 11.7902 16.9305 11.6073 16.9305 11.4556L16.4305 11.4556Z" fill="white"/>
<path d="M6.20142 12.0947C5.80768 12.506 5.15052 12.506 4.75678 12.0947L3.2308 10.5009C2.97806 10.2369 2.97806 9.82065 3.2308 9.55665C3.4996 9.2759 3.94822 9.2759 4.21702 9.55665L4.75678 10.1204C5.15052 10.5317 5.80768 10.5317 6.20142 10.1204L9.44147 6.73623C9.71027 6.45548 10.1589 6.45548 10.4277 6.73623C10.6804 7.00023 10.6804 7.41645 10.4277 7.68044L6.20142 12.0947Z" fill="white"/>
</svg>
