<svg width="24" height="24" viewBox="0 0 24 24" fill="none" xmlns="http://www.w3.org/2000/svg">
<path d="M21.0392 5.81521C21.0392 5.12299 21.0366 4.70645 20.9938 4.40708C20.9652 4.20786 20.929 4.14227 20.9122 4.12162L20.9028 4.11271C20.8928 4.10326 20.8367 4.04377 20.525 4.00443C20.1907 3.96225 19.7317 3.96037 18.9992 3.96037H4.99907C4.26646 3.96037 3.80767 3.96225 3.47329 4.00443C3.16157 4.04375 3.1055 4.10326 3.09548 4.11271C3.09437 4.11375 3.04207 4.14194 3.00407 4.40708C2.96119 4.70644 2.95907 5.12302 2.95907 5.81521V6.50474C2.95907 7.04323 2.9601 7.37492 2.98626 7.6274C3.00999 7.8564 3.0482 7.94235 3.08048 7.99583C3.11474 8.05261 3.18092 8.13509 3.38938 8.2799C3.61306 8.43526 3.92223 8.61064 4.4122 8.88646L7.32501 10.5261L7.73985 10.7605C8.12551 10.9806 8.42595 11.1647 8.6661 11.3732C9.29008 11.9149 9.69405 12.5774 9.87267 13.3785C9.96495 13.7923 9.95892 14.2557 9.95892 14.8733V17.5429C9.95892 18.0197 9.96064 18.2958 9.98423 18.4996C10.0038 18.6685 10.0307 18.7022 10.0334 18.7054C10.0369 18.7103 10.0651 18.7559 10.2477 18.8502C10.4481 18.9537 10.7289 19.0645 11.195 19.2468C12.162 19.6248 12.7921 19.8687 13.2641 19.9808C13.7197 20.089 13.8102 20.0182 13.8219 20.0108C13.8372 20.0013 13.8489 19.9933 13.8683 19.9565C13.8953 19.9052 13.9347 19.7998 13.9672 19.5936C14.0361 19.1565 14.0389 18.5312 14.0389 17.5429V14.8733C14.0389 14.2557 14.0333 13.7923 14.1256 13.3785C14.3042 12.5774 14.7082 11.9149 15.3322 11.3732L15.4574 11.2705C15.7617 11.0348 16.1536 10.8186 16.6733 10.5261L19.5861 8.88646C20.0761 8.6106 20.3852 8.43528 20.6089 8.2799C20.8172 8.13521 20.8831 8.0526 20.9174 7.99583C20.9496 7.94235 20.9878 7.8564 21.0116 7.6274C21.0377 7.37492 21.0392 7.04323 21.0392 6.50474V5.81521ZM22.9592 6.50474C22.9592 7.00409 22.9605 7.45122 22.9217 7.82521C22.8806 8.22254 22.7886 8.61105 22.5613 8.98771C22.3359 9.36108 22.035 9.62707 21.7044 9.85677C21.3889 10.0759 20.9863 10.3013 20.5278 10.5594L17.615 12.1991V12.1996C16.936 12.5817 16.7262 12.7054 16.5908 12.823C16.2661 13.1049 16.0858 13.4102 15.9997 13.7961V13.7966C15.9649 13.9528 15.9589 14.1568 15.9589 14.8733V17.5429C15.9589 18.4639 15.9618 19.2707 15.8638 19.8927C15.7609 20.545 15.5149 21.2169 14.8405 21.6388H14.84C14.183 22.0496 13.4687 22.0028 12.8202 21.8488C12.1859 21.6981 11.4071 21.3914 10.4956 21.0351C10.067 20.8675 9.67637 20.716 9.36642 20.556C9.0796 20.4079 8.79735 20.2214 8.56485 19.9429L8.46829 19.8177C8.21672 19.4636 8.11936 19.0873 8.07688 18.7208C8.03753 18.3812 8.03892 17.9754 8.03892 17.5429V14.8733C8.03892 14.157 8.03342 13.9528 7.9986 13.7966C7.9125 13.4104 7.73188 13.105 7.40704 12.823C7.27155 12.7054 7.06207 12.5816 6.38329 12.1996V12.1991L3.47001 10.5594C3.01154 10.3013 2.60938 10.0759 2.29392 9.85677C1.9632 9.62705 1.66191 9.36111 1.43657 8.98771C1.20933 8.61109 1.11774 8.22248 1.07657 7.82521C1.03783 7.45122 1.03907 7.00409 1.03907 6.50474V5.81521C1.03907 5.18071 1.03684 4.60182 1.10376 4.13474C1.1756 3.63343 1.34337 3.1237 1.78157 2.71255C2.21108 2.30957 2.72865 2.16305 3.23282 2.09943C3.71539 2.03856 4.31747 2.04037 4.99907 2.04037H18.9992C19.6807 2.04036 20.2825 2.03857 20.765 2.09943C21.2693 2.16303 21.7872 2.30957 22.2167 2.71255C22.6549 3.1237 22.8227 3.63346 22.8945 4.13474C22.9615 4.60181 22.9592 5.18071 22.9592 5.81521V6.50474Z" fill="white"/>
</svg>
