<svg width="14" height="14" viewBox="0 0 14 14" fill="none" xmlns="http://www.w3.org/2000/svg">
<g clip-path="url(#clip0_14696_82975)">
<path d="M1.16668 9.91668C1.811 9.91668 2.33332 10.439 2.33332 11.0833C2.33332 11.7277 1.811 12.25 1.16668 12.25C0.522343 12.25 0 11.7277 0 11.0833C4.6789e-06 10.439 0.522346 9.91668 1.16668 9.91668Z" fill="white"/>
<path d="M13.4167 10.5C13.5714 10.5 13.7198 10.5615 13.8292 10.6708C13.9385 10.7802 14 10.9286 14 11.0833C14 11.238 13.9385 11.3864 13.8292 11.4958C13.7198 11.6052 13.5714 11.6667 13.4167 11.6667H4.08332C3.92862 11.6667 3.78024 11.6052 3.67085 11.4958C3.56145 11.3864 3.5 11.238 3.5 11.0833C3.5 10.9286 3.56145 10.7802 3.67085 10.6708C3.78024 10.5615 3.92862 10.5 4.08332 10.5H13.4167Z" fill="white"/>
<path d="M1.16668 5.83332C1.811 5.83333 2.33332 6.35567 2.33332 7C2.33332 7.64433 1.811 8.16667 1.16668 8.16668C0.522343 8.16668 5.63801e-08 7.64433 0 7C0 6.35567 0.522343 5.83332 1.16668 5.83332Z" fill="white"/>
<path d="M13.4167 6.41668C13.5714 6.41668 13.7198 6.47813 13.8292 6.58752C13.9385 6.69692 14 6.84529 14 7C14 7.15471 13.9385 7.30308 13.8292 7.41248C13.7198 7.52187 13.5714 7.58332 13.4167 7.58332H4.08332C3.92862 7.58332 3.78024 7.52187 3.67085 7.41248C3.56145 7.30308 3.5 7.15471 3.5 7C3.5 6.84529 3.56145 6.69692 3.67085 6.58752C3.78024 6.47813 3.92862 6.41668 4.08332 6.41668H13.4167Z" fill="white"/>
<path d="M1.16668 1.75C1.811 1.75 2.33332 2.27235 2.33332 2.91668C2.33332 3.561 1.811 4.08332 1.16668 4.08332C0.522346 4.08332 4.79227e-06 3.561 0 2.91668C0 2.27234 0.522343 1.75 1.16668 1.75Z" fill="white"/>
<path d="M13.4167 2.33332C13.5714 2.33333 13.7198 2.3948 13.8292 2.5042C13.9385 2.61359 14 2.76197 14 2.91668C14 3.07138 13.9385 3.21976 13.8292 3.32915C13.7198 3.43855 13.5714 3.5 13.4167 3.5H4.08332C3.92862 3.5 3.78024 3.43855 3.67085 3.32915C3.56145 3.21976 3.5 3.07138 3.5 2.91668C3.5 2.76197 3.56145 2.61359 3.67085 2.5042C3.78024 2.3948 3.92862 2.33333 4.08332 2.33332H13.4167Z" fill="white"/>
</g>
<defs>
<clipPath id="clip0_14696_82975">
<rect width="14" height="14" fill="white"/>
</clipPath>
</defs>
</svg>
