<svg width="30" height="30" viewBox="0 0 30 30" fill="none" xmlns="http://www.w3.org/2000/svg">
<path d="M15 21.25C15.6904 21.25 16.25 21.8096 16.25 22.5C16.25 23.1903 15.6904 23.75 15 23.75C14.3097 23.75 13.75 23.1903 13.75 22.5C13.75 21.8096 14.3097 21.25 15 21.25Z" fill="#FF3B3B"/>
<path d="M15 6.24999C15.3315 6.24999 15.6494 6.38178 15.8838 6.6162C16.1182 6.85062 16.25 7.16847 16.25 7.49999V17.5C16.25 17.8315 16.1182 18.1493 15.8838 18.3838C15.6494 18.6182 15.3315 18.75 15 18.75C14.6685 18.75 14.3506 18.6182 14.1162 18.3838C13.8818 18.1493 13.75 17.8315 13.75 17.5V7.49999C13.75 7.16847 13.8818 6.85062 14.1162 6.6162C14.3506 6.38178 14.6685 6.24999 15 6.24999Z" fill="#FF3B3B"/>
<path fill-rule="evenodd" clip-rule="evenodd" d="M15 0C18.9769 0.00430134 22.7896 1.58622 25.6017 4.39832C28.4138 7.21043 29.9957 11.0231 30 15C30 17.9667 29.12 20.8666 27.4718 23.3333C25.8236 25.8 23.4809 27.7226 20.74 28.8579C17.9992 29.9932 14.9833 30.2906 12.0736 29.7119C9.1639 29.1331 6.49125 27.7043 4.39348 25.6065C2.2957 23.5088 0.866904 20.8361 0.28812 17.9264C-0.290649 15.0167 0.00679731 12.0008 1.14207 9.25997C2.27738 6.51908 4.19996 4.17643 6.66669 2.52821C9.13342 0.880004 12.0333 1.41398e-06 15 0ZM19.7835 3.4516C17.4995 2.50551 14.9861 2.25802 12.5613 2.74034C10.1366 3.22267 7.90918 4.41289 6.16105 6.16102C4.41292 7.90915 3.2227 10.1366 2.74037 12.5613C2.25806 14.9861 2.50554 17.4994 3.45164 19.7835C4.39773 22.0676 5.99998 24.0198 8.05558 25.3933C10.1112 26.7668 12.5278 27.5 15 27.5C18.3141 27.4963 21.4912 26.178 23.8346 23.8346C26.1781 21.4912 27.4964 18.3141 27.5 15C27.5 12.5278 26.7668 10.1111 25.3933 8.05555C24.0198 5.99994 22.0676 4.3977 19.7835 3.4516Z" fill="#FF3B3B"/>
</svg>
