<svg width="14" height="14" viewBox="0 0 14 14" fill="none" xmlns="http://www.w3.org/2000/svg">
<path d="M5.05556 0H1.16667C0.523444 0 0 0.523444 0 1.16667V5.05556C0 5.69878 0.523444 6.22222 1.16667 6.22222H5.05556C5.69878 6.22222 6.22222 5.69878 6.22222 5.05556V1.16667C6.22222 0.523444 5.69878 0 5.05556 0ZM5.44444 5.05556C5.44444 5.27022 5.26944 5.44444 5.05556 5.44444H1.16667C0.952778 5.44444 0.777778 5.27022 0.777778 5.05556V1.16667C0.777778 0.952 0.952778 0.777778 1.16667 0.777778H5.05556C5.26944 0.777778 5.44444 0.952 5.44444 1.16667V5.05556ZM12.8333 0H8.94444C8.30122 0 7.77778 0.523444 7.77778 1.16667V5.05556C7.77778 5.69878 8.30122 6.22222 8.94444 6.22222H12.8333C13.4766 6.22222 14 5.69878 14 5.05556V1.16667C14 0.523444 13.4766 0 12.8333 0ZM13.2222 5.05556C13.2222 5.27022 13.0472 5.44444 12.8333 5.44444H8.94444C8.73056 5.44444 8.55556 5.27022 8.55556 5.05556V1.16667C8.55556 0.952 8.73056 0.777778 8.94444 0.777778H12.8333C13.0472 0.777778 13.2222 0.952 13.2222 1.16667V5.05556ZM5.05556 7.77778H1.16667C0.523444 7.77778 0 8.30122 0 8.94444V12.8333C0 13.4766 0.523444 14 1.16667 14H5.05556C5.69878 14 6.22222 13.4766 6.22222 12.8333V8.94444C6.22222 8.30122 5.69878 7.77778 5.05556 7.77778ZM5.44444 12.8333C5.44444 13.048 5.26944 13.2222 5.05556 13.2222H1.16667C0.952778 13.2222 0.777778 13.048 0.777778 12.8333V8.94444C0.777778 8.72978 0.952778 8.55556 1.16667 8.55556H5.05556C5.26944 8.55556 5.44444 8.72978 5.44444 8.94444V12.8333ZM12.8333 7.77778H8.94444C8.30122 7.77778 7.77778 8.30122 7.77778 8.94444V12.8333C7.77778 13.4766 8.30122 14 8.94444 14H12.8333C13.4766 14 14 13.4766 14 12.8333V8.94444C14 8.30122 13.4766 7.77778 12.8333 7.77778ZM13.2222 12.8333C13.2222 13.048 13.0472 13.2222 12.8333 13.2222H8.94444C8.73056 13.2222 8.55556 13.048 8.55556 12.8333V8.94444C8.55556 8.72978 8.73056 8.55556 8.94444 8.55556H12.8333C13.0472 8.55556 13.2222 8.72978 13.2222 8.94444V12.8333Z" fill="white"/>
</svg>
