<svg width="22" height="22" viewBox="0 0 22 22" fill="none" xmlns="http://www.w3.org/2000/svg">
<g id="home">
<path id="Rectangle 10" d="M20.2339 7.73996L20.1745 7.26998C20.1216 6.85167 19.8823 6.47976 19.5234 6.25838L11.5251 1.32392C11.2032 1.12535 10.7968 1.12535 10.4749 1.32392L2.47656 6.25838C2.11772 6.47976 1.87837 6.85167 1.82552 7.26998L1.76614 7.73996C1.2574 11.7668 1.2574 15.8417 1.76614 19.8685C1.84783 20.5151 2.39782 21 3.04958 21H8.04492V12.0582H13.583L13.7778 21H18.9504C19.6022 21 20.1522 20.5151 20.2339 19.8685C20.7426 15.8417 20.7426 11.7668 20.2339 7.73996Z" stroke="white" stroke-width="2" stroke-linejoin="round"/>
</g>
</svg>
