<svg width="22" height="22" viewBox="0 0 22 22" fill="none" xmlns="http://www.w3.org/2000/svg">
<g clip-path="url(#clip0_8203_40885)">
<path d="M15.123 7.50211H6.37436V6.62725C6.3737 4.21139 8.33161 2.25237 10.7475 2.25171C12.3393 2.25126 13.8056 3.11553 14.5762 4.50834C14.8108 4.93086 15.3435 5.08325 15.7661 4.84867C16.1886 4.6141 16.341 4.08139 16.1064 3.65887C14.4681 0.699912 10.7413 -0.370722 7.78229 1.26757C5.83315 2.34673 4.62387 4.39933 4.62461 6.6273V7.87312C3.03237 8.56803 2.0023 10.1393 2 11.8765V17.1257C2.00291 19.5404 3.95968 21.4972 6.37436 21.5001H15.123C17.5377 21.4972 19.4945 19.5404 19.4974 17.1257V11.8765C19.4945 9.46175 17.5377 7.50498 15.123 7.50211ZM11.6236 15.3759C11.6236 15.8591 11.2319 16.2508 10.7487 16.2508C10.2655 16.2508 9.87386 15.8591 9.87386 15.3759V13.6262C9.87386 13.143 10.2655 12.7513 10.7487 12.7513C11.2319 12.7513 11.6236 13.143 11.6236 13.6262V15.3759Z" fill="#0069FF"/>
</g>
<defs>
<clipPath id="clip0_8203_40885">
<rect width="21" height="21" fill="white" transform="translate(0.25 0.5)"/>
</clipPath>
</defs>
</svg>
