<svg width="24" height="24" viewBox="0 0 24 24" fill="none" xmlns="http://www.w3.org/2000/svg">
<rect x="0.5" y="0.5" width="23" height="23" rx="11.5" stroke="white"/>
<path d="M12.2282 6.616C13.1522 6.616 13.8989 6.87733 14.4682 7.4C15.0375 7.92267 15.3222 8.62267 15.3222 9.5C15.3222 10.48 15.0189 11.208 14.4122 11.684C13.8055 12.1507 12.9842 12.384 11.9482 12.384L11.9062 13.714H10.8002L10.7442 11.502H11.1502C12.0742 11.502 12.7975 11.362 13.3202 11.082C13.8429 10.802 14.1042 10.2747 14.1042 9.5C14.1042 8.94 13.9362 8.49667 13.6002 8.17C13.2642 7.84333 12.8115 7.68 12.2422 7.68C11.6635 7.68 11.2062 7.83867 10.8702 8.156C10.5435 8.464 10.3802 8.88867 10.3802 9.43H9.1762C9.1762 8.87 9.3022 8.38 9.5542 7.96C9.8062 7.53067 10.1609 7.19933 10.6182 6.966C11.0849 6.73267 11.6215 6.616 12.2282 6.616ZM11.3462 16.584C11.1035 16.584 10.8982 16.5 10.7302 16.332C10.5622 16.164 10.4782 15.9587 10.4782 15.716C10.4782 15.4733 10.5622 15.268 10.7302 15.1C10.8982 14.932 11.1035 14.848 11.3462 14.848C11.5795 14.848 11.7755 14.932 11.9342 15.1C12.1022 15.268 12.1862 15.4733 12.1862 15.716C12.1862 15.9587 12.1022 16.164 11.9342 16.332C11.7755 16.5 11.5795 16.584 11.3462 16.584Z" fill="white"/>
</svg>
