<svg width="22" height="22" viewBox="0 0 22 22" fill="none" xmlns="http://www.w3.org/2000/svg">
<path id="Vector 65" d="M9.5 20C8.94772 20 8.5 20.4477 8.5 21C8.5 21.5523 8.94772 22 9.5 22V20ZM0.792893 7.29289C0.402369 7.68342 0.402369 8.31658 0.792893 8.70711L7.15685 15.0711C7.54738 15.4616 8.18054 15.4616 8.57107 15.0711C8.96159 14.6805 8.96159 14.0474 8.57107 13.6569L2.91421 8L8.57107 2.34315C8.96159 1.95262 8.96159 1.31946 8.57107 0.928932C8.18054 0.538408 7.54738 0.538408 7.15685 0.928932L0.792893 7.29289ZM9.5 22L14 22L14 20L9.5 20V22ZM14 7H1.5V9H14V7ZM21.5 14.5C21.5 10.3579 18.1421 7 14 7V9C17.0376 9 19.5 11.4624 19.5 14.5H21.5ZM14 22C18.1421 22 21.5 18.6421 21.5 14.5H19.5C19.5 17.5376 17.0376 20 14 20L14 22Z" fill="white"/>
</svg>
