<svg width="22" height="19" viewBox="0 0 22 19" fill="none" xmlns="http://www.w3.org/2000/svg">
<g id="chats">
<path id="Vector" d="M11 17.2778C12.9778 17.2778 14.9112 16.8216 16.5557 15.967C18.2002 15.1124 19.4819 13.8976 20.2388 12.4764C20.9957 11.0552 21.1937 9.49137 20.8078 7.98263C20.422 6.47389 19.4696 5.08802 18.0711 4.00028C16.6725 2.91254 14.8907 2.17178 12.9509 1.87167C11.0111 1.57157 9.00042 1.72559 7.17316 2.31427C5.3459 2.90295 3.78412 3.89985 2.6853 5.1789C1.58649 6.45795 1 7.9617 1 9.5C1 10.7859 1.4 11.9984 2.11111 13.0665L1 17.2778L6.41444 16.4136C7.78778 16.9667 9.34778 17.2778 11 17.2778Z" stroke="white" stroke-width="2" stroke-linecap="round" stroke-linejoin="round"/>
</g>
</svg>
