<svg width="22" height="17" viewBox="0 0 22 17" fill="none" xmlns="http://www.w3.org/2000/svg">
<path d="M11 16.2777C12.9778 16.2777 14.9112 15.8216 16.5557 14.9669C18.2002 14.1123 19.4819 12.8976 20.2388 11.4764C20.9957 10.0552 21.1937 8.49132 20.8078 6.98258C20.422 5.47384 19.4696 4.08797 18.0711 3.00023C16.6725 1.91249 14.8907 1.17173 12.9509 0.871619C11.0111 0.571512 9.00042 0.725538 7.17316 1.31422C5.3459 1.9029 3.78412 2.8998 2.6853 4.17885C1.58649 5.4579 1 6.96165 1 8.49995C1 9.78587 1.4 10.9983 2.11111 12.0665L1 16.2777L6.41444 15.4135C7.78778 15.9666 9.34778 16.2777 11 16.2777Z" stroke="white" stroke-linecap="round" stroke-linejoin="round"/>
</svg>
