<svg width="30" height="30" viewBox="0 0 30 30" fill="none" xmlns="http://www.w3.org/2000/svg">
<path d="M25 0H5C2.2425 0 0 2.2425 0 5V6.25C0 7.3575 0.48375 8.355 1.25 9.0425V23.75C1.25 27.1963 4.05375 30 7.5 30H11.25C11.94 30 12.5 29.44 12.5 28.75C12.5 28.06 11.94 27.5 11.25 27.5H7.5C5.4325 27.5 3.75 25.8175 3.75 23.75V10H26.25V11.25C26.25 11.94 26.81 12.5 27.5 12.5C28.19 12.5 28.75 11.94 28.75 11.25V9.0425C29.5163 8.355 30 7.35875 30 6.25V5C30 2.2425 27.7575 0 25 0ZM3.75 7.5C3.06125 7.5 2.5 6.93875 2.5 6.25V5C2.5 3.62125 3.62125 2.5 5 2.5H25C26.3787 2.5 27.5 3.62125 27.5 5V6.25C27.5 6.93875 26.9387 7.5 26.25 7.5H3.75ZM21.25 12.5C16.425 12.5 12.5 16.425 12.5 21.25C12.5 26.075 16.425 30 21.25 30C26.075 30 30 26.075 30 21.25C30 16.425 26.075 12.5 21.25 12.5ZM21.25 27.5C17.8037 27.5 15 24.6963 15 21.25C15 17.8037 17.8037 15 21.25 15C24.6963 15 27.5 17.8037 27.5 21.25C27.5 24.6963 24.6963 27.5 21.25 27.5ZM25.2763 19.735C25.755 20.2325 25.7387 21.0238 25.24 21.5025L22.475 24.1575C21.9087 24.7162 21.16 24.9963 20.4087 24.9963C19.6575 24.9963 18.9037 24.7162 18.3288 24.1537L16.9137 22.77C16.42 22.2862 16.4125 21.495 16.895 21.0013C17.38 20.51 18.1712 20.5012 18.6637 20.9825L20.0788 22.3675C20.2587 22.5462 20.5512 22.5437 20.7312 22.3675L23.51 19.7C24.0075 19.2213 24.7987 19.2375 25.2775 19.7362L25.2763 19.735Z" fill="#AAFF67"/>
</svg>
