<svg width="24" height="24" viewBox="0 0 24 24" fill="none" xmlns="http://www.w3.org/2000/svg">
<path d="M6.8344 3C9.0828 3 10.4132 3.82543 11.3889 5.57143L12 7.5L9.55556 10.7143L12 16.554L12.6111 11.3571L15.0556 7.5L13.8333 3.98539C14.7767 3.3648 15.9244 3 17.1656 3C20.3886 3 23 5.448 23 8.481C23 11.514 21.306 14.088 18.4185 16.554C15.7114 18.867 12 21 12 21C12 21 8.1643 18.831 5.5815 16.554C2.9987 14.277 1 11.505 1 8.481C1 5.457 3.6114 3 6.8344 3Z" stroke="white" stroke-width="1.5" stroke-linecap="round" stroke-linejoin="round"/>
</svg>
