<svg width="24" height="21" viewBox="0 0 24 21" fill="none" xmlns="http://www.w3.org/2000/svg">
<g id="dislike">
<path id="Vector" d="M12 18.2778C12.4794 19.1554 12.4795 19.1553 12.4796 19.1553L12.4799 19.1551L12.4806 19.1547L12.4829 19.1534L12.4913 19.1489L12.5222 19.1318C12.549 19.117 12.5879 19.0954 12.6381 19.0674C12.7383 19.0113 12.8831 18.9295 13.0642 18.8254C13.4262 18.6172 13.934 18.3189 14.52 17.9572C15.686 17.2372 17.1864 16.2507 18.4655 15.2118C21.183 13.0055 23 10.5252 23 7.45889C23 4.18155 20.0683 1.72223 16.696 1.72223C15.3807 1.72223 14.1535 2.08991 13.1364 2.72594C12.7357 2.97655 12.5652 3.47349 12.7275 3.91735L13.6644 6.47839L11.7235 9.38975C11.6372 9.51928 11.5822 9.66719 11.5631 9.82169L11.453 10.7119L10.9372 9.54044L12.7809 7.23581C12.9928 6.97093 13.056 6.61669 12.9487 6.29489L12.3931 4.62822C12.371 4.56185 12.342 4.49799 12.3065 4.43768C11.7948 3.56712 11.1516 2.86404 10.2891 2.39081C9.43242 1.92072 8.44088 1.72223 7.304 1.72223C3.93062 1.72223 1 4.19033 1 7.45889C1 10.5337 3.11662 13.1856 5.52268 15.202C6.75267 16.2328 8.26012 17.2234 9.44023 17.9471C10.0342 18.3113 10.5534 18.6129 10.9247 18.8237C11.1104 18.9292 11.2595 19.0122 11.3628 19.0691C11.4144 19.0976 11.4546 19.1196 11.4823 19.1346L11.5142 19.152L11.5229 19.1566L11.5253 19.158L11.5261 19.1584L11.5263 19.1585C11.5264 19.1585 11.5265 19.1586 12 18.2778ZM12 18.2778L12.4794 19.1554C12.1828 19.3174 11.8243 19.3187 11.5265 19.1586L12 18.2778Z" stroke="white" stroke-width="2" stroke-linecap="round" stroke-linejoin="round"/>
</g>
</svg>
