<svg width="22" height="17" viewBox="0 0 22 17" fill="none" xmlns="http://www.w3.org/2000/svg">
<path d="M6.304 0.722168C8.348 0.722168 9.55744 1.4355 10.4444 2.94439L11 4.61106L8.77778 7.38883L11 12.4355L11.5556 7.94439L13.7778 4.61106L12.6667 1.57374C13.5242 1.03743 14.5676 0.722168 15.696 0.722168C18.626 0.722168 21 2.83772 21 5.45883C21 8.07994 19.46 10.3044 16.835 12.4355C14.374 14.4344 11 16.2777 11 16.2777C11 16.2777 7.513 14.4033 5.165 12.4355C2.817 10.4677 1 8.07217 1 5.45883C1 2.8455 3.374 0.722168 6.304 0.722168Z" stroke="white" stroke-linecap="round" stroke-linejoin="round"/>
</svg>
