<svg width="40" height="30" viewBox="0 0 40 30" fill="none" xmlns="http://www.w3.org/2000/svg">
<g id="Group 65">
<path id="Subtract" d="M40.0003 25V7.64045C40.0003 4.87902 37.7617 2.64045 35.0003 2.64045H21.6374C20.5738 2.64045 19.5379 2.30128 18.6803 1.67223L17.7204 0.968215C16.8627 0.339168 15.8268 0 14.7632 0H4.17007C3.73543 0 3.31262 0.141587 2.96564 0.403331L1.98893 1.1401C0.736394 2.08493 -2.01523e-05 3.5629 4.1473e-10 5.13184L0.000255205 25.0001C0.000290674 27.7615 2.23886 30 5.00025 30H35.0003C37.7617 30 40.0003 27.7614 40.0003 25Z" fill="white"/>
<g id="Group 60">
<path id="Vector 76" d="M11.8496 11.75V18.25" stroke="#252525" stroke-width="3" stroke-linecap="round"/>
<path id="Vector 78" d="M20.25 11.1L20.25 19.5" stroke="#252525" stroke-width="3" stroke-linecap="round"/>
<path id="Vector 80" d="M28.1504 15L28.1504 16" stroke="#252525" stroke-width="3" stroke-linecap="round"/>
<path id="Vector 79" d="M24.4492 13.5L24.4492 17.1" stroke="#252525" stroke-width="3" stroke-linecap="round"/>
<path id="Vector 77" d="M16.0488 9L16.0488 21" stroke="#252525" stroke-width="3" stroke-linecap="round"/>
</g>
</g>
</svg>
