<svg width="15" height="15" viewBox="0 0 15 15" fill="none" xmlns="http://www.w3.org/2000/svg">
<path d="M10.0003 9.38062C10.166 9.38062 10.325 9.44639 10.4422 9.56348C10.5594 9.68057 10.6252 9.83939 10.6252 10.005C10.6252 10.1706 10.5594 10.3294 10.4422 10.4465C10.325 10.5636 10.166 10.6293 10.0003 10.6293H5.00051C4.83476 10.6293 4.67579 10.5636 4.55859 10.4465C4.44139 10.3294 4.37555 10.1706 4.37555 10.005C4.37555 9.83939 4.44139 9.68057 4.55859 9.56348C4.67579 9.44639 4.83476 9.38062 5.00051 9.38062H10.0003Z" fill="white"/>
<path d="M10.0003 6.88312C10.166 6.88312 10.325 6.9489 10.4422 7.06599C10.5594 7.18308 10.6252 7.3419 10.6252 7.50749C10.6252 7.67308 10.5594 7.8319 10.4422 7.94899C10.325 8.06608 10.166 8.13186 10.0003 8.13186H5.00051C4.83476 8.13185 4.67579 8.06608 4.55859 7.94899C4.44139 7.8319 4.37555 7.67308 4.37555 7.50749C4.37555 7.3419 4.44139 7.18308 4.55859 7.06599C4.67579 6.9489 4.83476 6.88312 5.00051 6.88312H10.0003Z" fill="white"/>
<path d="M7.50041 4.3856C7.66616 4.3856 7.82513 4.45138 7.94233 4.56847C8.05954 4.68556 8.12537 4.84438 8.12537 5.00997C8.12537 5.17556 8.05953 5.33438 7.94233 5.45147C7.82513 5.56856 7.66616 5.63433 7.50041 5.63433H5.00051C4.83476 5.63433 4.67579 5.56856 4.55859 5.45147C4.44139 5.33437 4.37555 5.17556 4.37555 5.00997C4.37555 4.84437 4.44139 4.68556 4.55859 4.56847C4.67579 4.45137 4.83476 4.3856 5.00051 4.3856H7.50041Z" fill="white"/>
<path fill-rule="evenodd" clip-rule="evenodd" d="M5.75828 0.206362C7.18317 -0.134648 8.67681 -0.0516512 10.055 0.445162C11.4333 0.941974 12.6359 1.83087 13.5145 3.00225C14.3932 4.17363 14.9096 5.57632 15 7.03735V11.8781C14.9992 12.7058 14.6697 13.4994 14.0838 14.0847C13.498 14.67 12.7036 14.9992 11.8751 15H7.51097C6.04576 15.0007 4.61237 14.5731 3.38749 13.7698C2.16261 12.9665 1.1998 11.8227 0.617748 10.4794C0.0357004 9.13599 -0.140136 7.65182 0.111914 6.20983C0.363964 4.76783 1.03288 3.43105 2.0362 2.36428C3.03952 1.2975 4.33338 0.547373 5.75828 0.206362ZM7.51346 1.26374C7.24184 1.26409 6.9705 1.28118 6.701 1.31493C5.31938 1.49732 4.03782 2.1339 3.05834 3.12432C2.07886 4.11475 1.45715 5.40268 1.29126 6.78509C1.1862 7.66152 1.26992 8.55027 1.53681 9.39174C1.80369 10.2332 2.24758 11.0079 2.83868 11.6639C3.42695 12.3203 4.14709 12.8455 4.95214 13.2051C5.75719 13.5647 6.62909 13.7508 7.51097 13.7512H11.8751C12.3724 13.7512 12.8493 13.5539 13.2009 13.2026C13.5525 12.8513 13.75 12.3749 13.75 11.8781V7.09666C13.6925 6.24978 13.4634 5.42338 13.0767 4.66759C12.6899 3.9118 12.1536 3.24234 11.5002 2.6998C10.3813 1.76817 8.96994 1.25977 7.51346 1.26374Z" fill="white"/>
</svg>
