<svg width="33" height="27" viewBox="0 0 33 27" fill="none" xmlns="http://www.w3.org/2000/svg">
<path d="M16.4994 25.0642C19.466 25.0642 22.366 24.3799 24.8327 23.098C27.2993 21.8161 29.2218 19.9941 30.3571 17.8624C31.4924 15.7307 31.7894 13.385 31.2107 11.122C30.6319 8.85893 29.2033 6.78021 27.1056 5.14865C25.0079 3.5171 22.3353 2.406 19.4257 1.95586C16.5161 1.50571 13.5002 1.73674 10.7594 2.61973C8.01861 3.50272 5.67602 4.99801 4.02786 6.91651C2.3797 8.83502 1.5 11.0906 1.5 13.3979C1.5 15.3267 2.09998 17.1454 3.1666 18.7475L1.5 25.0642L9.62136 23.7679C11.6813 24.5975 14.0212 25.0642 16.4994 25.0642Z" stroke="white" stroke-width="3" stroke-linecap="round" stroke-linejoin="round"/>
</svg>
