<svg width="20" height="27" viewBox="0 0 20 27" fill="none" xmlns="http://www.w3.org/2000/svg">
<path id="Vector 65" d="M0.5 25.75C0.223858 25.75 0 25.9739 0 26.25C0 26.5261 0.223858 26.75 0.5 26.75V25.75ZM0.146447 3.39645C-0.0488155 3.59171 -0.0488155 3.90829 0.146447 4.10355L3.32843 7.28553C3.52369 7.4808 3.84027 7.4808 4.03553 7.28553C4.2308 7.09027 4.2308 6.77369 4.03553 6.57843L1.20711 3.75L4.03553 0.921573C4.2308 0.726311 4.2308 0.409728 4.03553 0.214466C3.84027 0.0192039 3.52369 0.0192039 3.32843 0.214466L0.146447 3.39645ZM0.5 26.75H7.75V25.75H0.5V26.75ZM7.75 3.25H0.5V4.25H7.75V3.25ZM19.5 15C19.5 8.51065 14.2393 3.25 7.75 3.25V4.25C13.6871 4.25 18.5 9.06294 18.5 15H19.5ZM7.75 26.75C14.2393 26.75 19.5 21.4893 19.5 15H18.5C18.5 20.9371 13.6871 25.75 7.75 25.75V26.75Z" fill="white"/>
</svg>
