<svg width="20" height="20" viewBox="0 0 20 20" fill="none" xmlns="http://www.w3.org/2000/svg">
<path d="M9.99958 0C4.48565 0 0 4.48565 0 9.99958C0 15.5135 4.48565 19.9992 9.99958 19.9992C15.5135 19.9992 19.9992 15.5135 19.9992 9.99958C19.9992 4.48565 15.5135 0 9.99958 0ZM12.9445 11.2587L11.077 15.3052C10.9287 15.6268 10.6071 15.8327 10.2529 15.8327H10.0754C9.57377 15.8327 9.16712 15.426 9.16712 14.9244V12.9536C9.16712 12.6628 9.05129 12.3837 8.84546 12.1778L7.85384 11.1862C7.62718 10.9595 7.49969 10.6521 7.49969 10.3321V9.5296C7.49969 9.29711 7.40719 9.07379 7.2422 8.9088L6.93138 8.59797C6.76138 8.42798 6.53139 8.33299 6.2914 8.33299H4.66731C4.34732 8.33299 4.0415 8.20216 3.82067 7.96967L2.43907 6.51723C3.76151 3.65901 6.64889 1.6666 9.99958 1.6666C10.1712 1.6666 10.3387 1.68243 10.5071 1.69243C10.0629 2.36573 9.66043 2.98488 9.41628 3.36319C9.26211 3.60068 9.25878 3.90317 9.40461 4.14649L10.1021 5.30978C10.2871 5.61727 10.2379 6.01142 9.98458 6.26557L9.98208 6.26807C9.74376 6.5064 9.38044 6.56556 9.07879 6.41473L8.34549 6.04808C8.08966 5.91975 7.78051 5.97058 7.57802 6.17224L7.1372 6.61306C6.87721 6.87305 6.87721 7.29386 7.1372 7.55302L7.63052 8.04633C7.81384 8.22966 8.063 8.33299 8.32215 8.33299H9.5146C9.83209 8.33299 10.1429 8.42215 10.4121 8.59048L12.547 9.92459C12.9961 10.2054 13.167 10.7771 12.9445 11.2587ZM16.2693 10.2162C15.9927 10.0787 15.7902 9.82709 15.7152 9.5271L15.1927 7.43802C15.0785 6.98138 15.281 6.5039 15.6885 6.26891L17.0076 5.5081C17.8426 6.80555 18.3326 8.34549 18.3326 9.99958C18.3326 10.4062 18.2934 10.8021 18.2367 11.1929L16.2693 10.2162Z" fill="white"/>
</svg>
